<svg width="705" height="84" viewBox="0 0 705 84" fill="none" xmlns="http://www.w3.org/2000/svg">
<path d="M686.747 13.1901V3.0601H689.813V0H679.983V3.0601H683.05V13.1901H686.747Z" fill="#5A514F"/>
<path d="M690.713 0L689.894 13.1901H693.57L693.969 5.82474H694.095L696.006 13.1901H698.842L700.732 5.82474H700.879L701.299 13.1901H704.975L704.156 0H699.451L697.497 7.47086H697.35L695.397 0H690.713Z" fill="#5A514F"/>
<path d="M234.246 51.4636C220.152 71.5978 241.796 102.806 272.501 69.081C256.446 81.6649 231.729 78.1414 234.246 51.4636Z" fill="#5A514F"/>
<path d="M247.333 39.3831C221.662 22.2691 202.535 55.4905 227.702 77.1347C221.662 67.5709 218.139 39.8865 247.333 39.3831Z" fill="#837572"/>
<path d="M261.93 56.0357C279.548 32.378 250.353 10.2305 226.192 32.378C237.769 28.8546 261.93 25.8344 261.93 56.0357Z" fill="#5A514F"/>
<path d="M246.016 67.2311C270.648 83.4591 291.08 53.0395 267.58 30.1919C271.763 41.5473 276.167 65.4947 246.016 67.2311Z" fill="#837572"/>
<path d="M255.387 52.9736C255.387 57.4216 251.781 61.0273 247.333 61.0273C242.885 61.0273 239.279 57.4216 239.279 52.9736C239.279 48.5257 242.885 44.92 247.333 44.92C251.781 44.92 255.387 48.5257 255.387 52.9736Z" fill="#9ABD55"/>
<path fill-rule="evenodd" clip-rule="evenodd" d="M677.206 83.1595V0H661.405V32.6267C657.489 28.0742 652.053 25.7979 645.098 25.7979C639.966 25.7979 635.307 26.9886 631.12 29.3699C627.001 31.7512 623.76 35.1481 621.396 39.5605C619.033 43.9729 617.851 49.0858 617.851 54.899C617.851 60.7122 619.033 65.825 621.396 70.2374C623.76 74.6498 627.001 78.0467 631.12 80.428C635.307 82.8093 639.966 84 645.098 84C652.526 84 658.198 81.5486 662.114 76.6459V83.1595H677.206ZM657.759 66.3503C655.125 69.1518 651.817 70.5526 647.833 70.5526C643.781 70.5526 640.439 69.1518 637.805 66.3503C635.171 63.4787 633.855 59.6616 633.855 54.899C633.855 50.1363 635.171 46.3543 637.805 43.5527C640.439 40.6811 643.781 39.2453 647.833 39.2453C651.817 39.2453 655.125 40.6811 657.759 43.5527C660.392 46.3543 661.709 50.1363 661.709 54.899C661.709 59.6616 660.392 63.4787 657.759 66.3503ZM554.38 59.4744C554.578 56.7376 554.678 55.264 554.678 55.0535C554.678 49.1589 553.454 44.0012 551.008 39.5803C548.628 35.0892 545.322 31.6507 541.091 29.2648C536.859 26.8789 532.132 25.6859 526.909 25.6859C521.554 25.6859 516.694 26.9491 512.33 29.4753C508.033 31.9314 504.628 35.4049 502.116 39.896C499.669 44.317 498.446 49.2993 498.446 54.843C498.446 60.4568 499.702 65.4742 502.215 69.8951C504.727 74.316 508.297 77.7896 512.925 80.3159C517.554 82.7719 522.876 84 528.892 84C538.545 84 545.884 80.9474 550.909 74.8424L542.678 65.3689C540.826 67.2636 538.81 68.6671 536.628 69.5794C534.512 70.4214 532.066 70.8425 529.289 70.8425C525.256 70.8425 521.884 69.825 519.173 67.7899C516.463 65.7549 514.744 62.9831 514.016 59.4744H554.38ZM518.182 41.2644C520.562 39.1592 523.504 38.1066 527.008 38.1066C530.446 38.1066 533.355 39.1943 535.735 41.3697C538.116 43.4749 539.57 46.3169 540.099 49.8957H513.818C514.347 46.2467 515.802 43.3696 518.182 41.2644ZM437.359 83.1582L427.4 63.7136L416.674 83.1582H396.397L417.088 54.6426L397.479 25.8536H417.934L427.82 44.1093L438.021 25.8536H457.532L437.923 54.2217L458.025 83.1582H437.359ZM394.986 83.1582V68.4378H362.275V49.656H391.537V35.0094H362.275V18.6683H393.621V3.60075H343.983V83.1582H394.986ZM593.119 24.9917C599.683 24.9917 604.966 27.4495 608.97 31.6707C613.04 35.8919 614.38 42.5005 614.38 50.8023V83.3058H596.592V53.335C596.592 46.5815 593.27 38.7465 586.523 39.0364L586.43 39.0407C586.375 39.0433 586.32 39.0463 586.264 39.0496C585.007 39.1235 583.924 39.4651 582.997 39.9571C578.563 42.3096 577.855 48.1478 577.704 53.1649C577.684 53.8372 577.672 54.5307 577.672 55.2346V83.3058H560.231V26.5302H574.901V33.1786C576.935 30.7866 579.462 28.9574 582.481 27.691C585.501 26.3543 589.509 24.9917 593.119 24.9917ZM496.042 83.1582C498.422 82.5268 500.416 81.6149 502.026 80.4224L497.617 68.8478C495.797 70.2507 493.592 70.9522 491.002 70.9522C488.763 70.9522 487.013 70.3209 485.753 69.0582C484.563 67.7254 483.968 65.8664 483.968 63.4814V38.7018H498.037V25.7279H483.968V10.5551L467.59 15.4146V25.7279H458.876V38.7018H467.59V63.6918C467.59 70.356 469.41 75.4067 473.049 78.844C476.759 82.2813 481.973 84 488.693 84C491.282 84 493.732 83.7194 496.042 83.1582Z" fill="#8EC03F"/>
<path fill-rule="evenodd" clip-rule="evenodd" d="M142.256 83.1582V26.5478H125.878V83.1582H142.256ZM126.718 16.0254C128.608 17.7792 131.057 18.656 134.067 18.656C137.077 18.656 139.526 17.7792 141.416 16.0254C143.306 14.2016 144.251 11.9217 144.251 9.18591C144.251 6.66054 143.306 4.55606 141.416 2.87248C139.526 1.1889 137.077 0.347107 134.067 0.347107C131.057 0.347107 128.608 1.22397 126.718 2.9777C124.828 4.73143 123.883 6.90606 123.883 9.50157C123.883 12.0971 124.828 14.2717 126.718 16.0254ZM210.435 26.5478H194.057V83.1582H210.435V26.5478ZM194.896 16.0254C196.786 17.7792 199.236 18.656 202.246 18.656C205.255 18.656 207.705 17.7792 209.595 16.0254C211.485 14.2016 212.43 11.9217 212.43 9.18591C212.43 6.66054 211.485 4.55606 209.595 2.87248C207.705 1.1889 205.255 0.347107 202.246 0.347107C199.236 0.347107 196.786 1.22397 194.896 2.9777C193.007 4.73143 192.062 6.90606 192.062 9.50157C192.062 12.0971 193.007 14.2717 194.896 16.0254ZM330.937 31.6707C326.933 27.4495 321.65 24.9917 315.086 24.9917C311.477 24.9917 307.468 26.3543 304.448 27.691C301.429 28.9574 298.902 30.7866 296.868 33.1786V26.5302H282.198V83.3058H299.639V55.2346C299.639 54.5307 299.651 53.8372 299.671 53.1649C299.822 48.1478 300.53 42.3096 304.964 39.9571C305.891 39.4651 306.974 39.1235 308.231 39.0496C308.318 39.0445 308.405 39.0401 308.49 39.0364C315.237 38.7465 318.559 46.5815 318.559 53.335V83.3058H336.347V50.8023C336.347 42.5005 335.007 35.8919 330.937 31.6707ZM189.722 80.4224C188.112 81.6149 186.118 82.5268 183.738 83.1582C181.428 83.7194 178.978 84 176.389 84C169.669 84 164.455 82.2813 160.745 78.844C157.106 75.4067 155.286 70.356 155.286 63.6918V38.7018H146.572V25.7279H155.286V15.4146L171.664 10.5551V25.7279H185.733V38.7018H171.664V63.4814C171.664 65.8664 172.259 67.7254 173.449 69.0582C174.709 70.3209 176.459 70.9522 178.698 70.9522C181.288 70.9522 183.493 70.2507 185.313 68.8478L189.722 80.4224ZM115.587 26.3802V83.1557H100.788V76.4018C98.7214 78.8642 96.2549 80.7637 93.3884 82.1004C90.522 83.3668 87.4222 84 84.0891 84C77.023 84 71.4234 81.8542 67.2904 77.5626C63.1574 73.271 61.0909 66.904 61.0909 58.4615V26.3802H78.4252V56.0343C78.4252 65.1803 80.3228 69.7533 87.5889 69.7533C91.3219 69.7533 94.0661 68.7273 95.894 65.9542C97.7219 63.1812 97.9053 59.5168 97.9053 54.4514V26.3802H115.587ZM0 19.2258H21.4348V83.1582H38.4429V19.2258H60.5719V3.60075H0V19.2258Z" fill="#5A514F"/>
</svg>
