<svg width="555" height="84" viewBox="0 0 555 84" fill="none" xmlns="http://www.w3.org/2000/svg">
<path d="M235.218 51.3286C221.066 71.5463 242.8 102.884 273.632 69.019C257.51 81.6551 232.691 78.117 235.218 51.3286Z" fill="#5A514F"/>
<path d="M248.359 39.1979C222.582 22.0129 203.375 55.3721 228.647 77.1061C222.582 67.5027 219.044 39.7034 248.359 39.1979Z" fill="#837572"/>
<path d="M263.017 55.9196C280.708 32.1638 251.392 9.92434 227.131 32.1638C238.756 28.6257 263.017 25.5931 263.017 55.9196Z" fill="#5A514F"/>
<path d="M247.037 67.1614C271.771 83.4568 292.288 52.911 268.69 29.9686C272.891 41.3711 277.313 65.4178 247.037 67.1614Z" fill="#837572"/>
<path d="M256.446 52.8449C256.446 57.3113 252.826 60.932 248.359 60.932C243.893 60.932 240.272 57.3113 240.272 52.8449C240.272 48.3785 243.893 44.7578 248.359 44.7578C252.826 44.7578 256.446 48.3785 256.446 52.8449Z" fill="#9ABD55"/>
<path fill-rule="evenodd" clip-rule="evenodd" d="M142.846 26.3094H126.4V83.1547H142.846V26.3094ZM127.244 15.7434C129.141 17.5044 131.601 18.3849 134.623 18.3849C137.645 18.3849 140.105 17.5044 142.003 15.7434C143.901 13.912 144.849 11.6226 144.849 8.87547C144.849 6.33963 143.901 4.22642 142.003 2.53585C140.105 0.845284 137.645 0 134.623 0C131.601 0 129.141 0.880504 127.244 2.64151C125.346 4.40252 124.397 6.58616 124.397 9.19245C124.397 11.7987 125.346 13.9824 127.244 15.7434ZM211.308 26.3094H194.862V83.1547H211.308V26.3094ZM195.705 15.7434C197.603 17.5044 200.063 18.3849 203.085 18.3849C206.107 18.3849 208.567 17.5044 210.465 15.7434C212.362 13.912 213.311 11.6226 213.311 8.87547C213.311 6.33963 212.362 4.22642 210.465 2.53585C208.567 0.845284 206.107 0 203.085 0C200.063 0 197.603 0.880504 195.705 2.64151C193.808 4.40252 192.859 6.58616 192.859 9.19245C192.859 11.7987 193.808 13.9824 195.705 15.7434ZM332.31 31.4535C328.29 27.2148 322.985 24.7469 316.394 24.7469C312.769 24.7469 308.744 26.1151 305.712 27.4574C302.68 28.729 300.143 30.5658 298.1 32.9678V26.2917H283.369V83.3029H300.883V55.1152C300.883 54.3975 300.895 53.6905 300.916 53.0056C301.069 47.9886 301.777 42.1586 306.202 39.789C307.139 39.2871 308.236 38.938 309.51 38.8631C309.598 38.8579 309.684 38.8535 309.77 38.8498C316.545 38.5587 319.881 46.4262 319.881 53.2078V83.3029H337.743V50.6645C337.743 42.3283 336.397 35.6923 332.31 31.4535ZM190.509 80.4075C188.893 81.605 186.89 82.5207 184.5 83.1547C182.181 83.7182 179.721 84 177.121 84C170.373 84 165.137 82.2742 161.412 78.8226C157.758 75.3711 155.93 70.2994 155.93 63.6075V38.5139H147.18V25.4861H155.93V15.13L172.377 10.2504V25.4861H186.503V38.5139H172.377V63.3962C172.377 65.7912 172.974 67.6579 174.169 68.9962C175.434 70.2641 177.191 70.8981 179.44 70.8981C182.04 70.8981 184.254 70.1937 186.082 68.7849L190.509 80.4075ZM116.066 26.1411V83.1522H101.206V76.3702C99.131 78.8428 96.6543 80.7503 93.776 82.0925C90.8976 83.3642 87.785 84 84.4381 84C77.3426 84 71.7198 81.8453 67.5697 77.5359C63.4195 73.2265 61.3444 66.8331 61.3444 58.3556V26.1411H78.7507V55.9183C78.7507 65.1022 80.6561 69.6942 87.9523 69.6942C91.7009 69.6942 94.4564 68.6639 96.2919 65.8793C98.1274 63.0948 98.3116 59.4152 98.3116 54.3287V26.1411H116.066ZM1.70898e-05 18.957H21.5237V83.1547H38.6025V18.957H60.8233V3.26712H1.70898e-05V18.957Z" fill="#5A514F"/>
<path d="M343.56 84H361.469V51.9432H389.717V37.7192H361.469V19.5981H391.72V5.03998H343.56V84Z" fill="#9ABD55"/>
<path d="M507.55 64.523L517.504 84H538.16L518.067 55.0153L537.667 26.6H518.166L507.969 44.886L498.088 26.6H477.642L497.242 55.4369L476.56 84H496.828L507.55 64.523Z" fill="#9ABD55"/>
<path fill-rule="evenodd" clip-rule="evenodd" d="M479.08 54.8123C479.08 55.0245 478.98 56.5104 478.781 59.27H438.181C438.913 62.8079 440.642 65.6029 443.368 67.6549C446.095 69.7068 449.487 70.7328 453.543 70.7328C456.336 70.7328 458.797 70.3083 460.925 69.4592C463.12 68.5393 465.148 67.1242 467.01 65.2137L475.289 74.766C470.235 80.922 462.853 84 453.144 84C447.092 84 441.739 82.7617 437.084 80.2852C432.429 77.7379 428.838 74.2354 426.311 69.7776C423.784 65.3198 422.52 60.2606 422.52 54.6C422.52 49.0101 423.75 43.9863 426.211 39.5285C428.738 35 432.163 31.4974 436.485 29.0209C440.875 26.4736 445.762 25.2 451.149 25.2C456.403 25.2 461.158 26.4029 465.414 28.8086C469.67 31.2144 472.995 34.6816 475.389 39.2101C477.85 43.6678 479.08 48.8686 479.08 54.8123ZM451.249 37.7242C447.724 37.7242 444.765 38.7855 442.371 40.9083C439.977 43.031 438.514 45.9321 437.982 49.6115H464.416C463.884 46.0029 462.421 43.1372 460.027 41.0144C457.633 38.8209 454.707 37.7242 451.249 37.7242Z" fill="#9ABD55"/>
<path d="M416.08 5.03998H398.16V84H416.08V5.03998Z" fill="#9ABD55"/>
<path d="M541.554 5.03998C540.668 5.03998 539.91 5.25247 539.318 5.71789C538.714 6.19356 538.412 6.84501 538.412 7.62929C538.412 8.3389 538.605 8.95544 539.026 9.43937L539.028 9.44115C539.44 9.91001 540.089 10.2795 540.918 10.5762L540.919 10.5764C541.484 10.7778 541.881 10.9499 542.125 11.0912L542.128 11.0925C542.374 11.2326 542.509 11.3652 542.577 11.4759L542.58 11.4802L542.582 11.4844C542.648 11.5856 542.697 11.7424 542.697 11.9856C542.697 12.3142 542.583 12.5384 542.36 12.7077C542.127 12.8808 541.731 13 541.107 13C540.729 13 540.346 12.9601 539.958 12.8794C539.566 12.7982 539.208 12.6883 538.883 12.551L538.3 12.3047V14.1667L538.539 14.2809C539.17 14.583 540.027 14.716 541.072 14.716C542.072 14.716 542.918 14.4908 543.562 13.9936C544.224 13.4828 544.549 12.7644 544.549 11.8915C544.549 11.2176 544.351 10.6316 543.926 10.1726C543.517 9.72612 542.817 9.35353 541.901 9.02682C541.374 8.83845 541.006 8.67559 540.779 8.54041C540.559 8.40369 540.435 8.27517 540.371 8.16591C540.309 8.05558 540.263 7.889 540.263 7.64105C540.263 7.3566 540.36 7.16944 540.544 7.02843C540.744 6.87588 541.056 6.77357 541.53 6.77357C542.137 6.77357 542.771 6.90819 543.437 7.18762L543.845 7.35918L544.439 5.70258L544.079 5.54546C543.304 5.20667 542.461 5.03998 541.554 5.03998Z" fill="#5A514F"/>
<path d="M547.68 5.16344H545.466V14.5984H547.229V8.92396L549.401 14.5984H550.783L552.98 8.91462V14.5984H554.819V5.16344H552.618L550.138 11.5669L547.68 5.16344Z" fill="#5A514F"/>
</svg>
