<svg width="580" height="84" viewBox="0 0 580 84" fill="none" xmlns="http://www.w3.org/2000/svg">
<path d="M561.57 16.45V6.23562H564.662V3.15002H554.75V6.23562H557.842V16.45H561.57Z" fill="#5A514F"/>
<path d="M565.569 3.15002L564.743 16.45H568.449L568.852 9.0233H568.979L570.906 16.45H573.766L575.672 9.0233H575.82L576.244 16.45H579.95L579.124 3.15002H574.38L572.41 10.6831H572.262L570.292 3.15002H565.569Z" fill="#5A514F"/>
<path d="M235.218 51.3286C221.066 71.5463 242.8 102.884 273.632 69.019C257.51 81.6551 232.691 78.117 235.218 51.3286Z" fill="#5A514F"/>
<path d="M248.359 39.1979C222.582 22.0129 203.375 55.3721 228.647 77.1061C222.582 67.5027 219.044 39.7034 248.359 39.1979Z" fill="#837572"/>
<path d="M263.017 55.9196C280.708 32.1638 251.392 9.92434 227.131 32.1638C238.756 28.6257 263.017 25.5931 263.017 55.9196Z" fill="#5A514F"/>
<path d="M247.037 67.1614C271.771 83.4568 292.288 52.911 268.69 29.9686C272.891 41.3711 277.313 65.4178 247.037 67.1614Z" fill="#837572"/>
<path d="M256.446 52.8449C256.446 57.3113 252.826 60.932 248.359 60.932C243.893 60.932 240.272 57.3113 240.272 52.8449C240.272 48.3785 243.893 44.7578 248.359 44.7578C252.826 44.7578 256.446 48.3785 256.446 52.8449Z" fill="#9ABD55"/>
<path fill-rule="evenodd" clip-rule="evenodd" d="M142.846 26.3094H126.4V83.1547H142.846V26.3094ZM127.244 15.7434C129.141 17.5044 131.601 18.3849 134.623 18.3849C137.645 18.3849 140.105 17.5044 142.003 15.7434C143.901 13.9119 144.849 11.6226 144.849 8.87547C144.849 6.33963 143.901 4.22642 142.003 2.53585C140.105 0.845284 137.645 0 134.623 0C131.601 0 129.141 0.880504 127.244 2.64151C125.346 4.40252 124.397 6.58616 124.397 9.19245C124.397 11.7987 125.346 13.9824 127.244 15.7434ZM211.308 26.3094H194.862V83.1547H211.308V26.3094ZM195.705 15.7434C197.603 17.5044 200.063 18.3849 203.085 18.3849C206.107 18.3849 208.567 17.5044 210.465 15.7434C212.362 13.9119 213.311 11.6226 213.311 8.87547C213.311 6.33963 212.362 4.22642 210.465 2.53585C208.567 0.845284 206.107 0 203.085 0C200.063 0 197.603 0.880504 195.705 2.64151C193.808 4.40252 192.859 6.58616 192.859 9.19245C192.859 11.7987 193.808 13.9824 195.705 15.7434ZM332.311 31.4535C328.29 27.2148 322.985 24.7469 316.394 24.7469C312.769 24.7469 308.744 26.1151 305.712 27.4574C302.68 28.729 300.143 30.5658 298.1 32.9677V26.2917H283.369V83.3029H300.883V55.1152C300.883 54.3974 300.895 53.6905 300.916 53.0056C301.069 47.9886 301.777 42.1586 306.202 39.7889C307.139 39.2871 308.236 38.938 309.51 38.863L309.581 38.8591L309.671 38.8544L309.721 38.852L309.77 38.8498C316.546 38.5587 319.881 46.4262 319.881 53.2078V83.3029H337.743V50.6645C337.743 42.3283 336.397 35.6923 332.311 31.4535ZM190.509 80.4076C188.893 81.605 186.89 82.5208 184.5 83.1547C182.181 83.7182 179.721 84 177.121 84C170.373 84 165.137 82.2742 161.412 78.8227C157.758 75.3711 155.93 70.2994 155.93 63.6076V38.5139H147.18V25.4861H155.93V15.1301L172.377 10.2504V25.4861H186.503V38.5139H172.377V63.3962C172.377 65.7912 172.974 67.6579 174.169 68.9962C175.434 70.2642 177.191 70.8981 179.44 70.8981C182.04 70.8981 184.254 70.1937 186.082 68.7849L190.509 80.4076ZM116.066 26.1411V83.1522H101.206V76.3702C99.1311 78.8428 96.6544 80.7503 93.776 82.0925C90.8977 83.3641 87.785 84 84.4381 84C77.3427 84 71.7199 81.8453 67.5697 77.5359C63.4195 73.2265 61.3445 66.833 61.3445 58.3555V26.1411H78.7507V55.9183C78.7507 65.1022 80.6561 69.6942 87.9524 69.6942C91.7009 69.6942 94.4565 68.6639 96.292 65.8793C98.1274 63.0948 98.3116 59.4152 98.3116 54.3287V26.1411H116.066ZM0 18.9571H21.5237V83.1547H38.6024V18.9571H60.8233V3.26715H0V18.9571Z" fill="#5A514F"/>
<path fill-rule="evenodd" clip-rule="evenodd" d="M392.137 82.2184H341.6V3.15002H390.387V17.9369H359.452V34.2474H388.382V49.0343H359.452V67.6733H392.137V82.2184ZM493.11 78.8937C497.337 75.7229 499.45 71.1076 499.45 65.0478C499.45 62.1235 498.939 59.6045 497.918 57.4906C496.897 55.3767 495.312 53.5094 493.163 51.8888C491.015 50.2681 487.634 48.5242 483.02 46.6569C477.842 44.5782 474.479 43.0104 472.929 41.9535C471.415 40.8965 470.658 39.6458 470.658 38.2013C470.658 35.6294 473.035 34.3435 477.79 34.3435C480.466 34.3435 483.09 34.7486 485.661 35.559C488.232 36.3693 490.997 37.4086 493.956 38.677L498.816 27.0506C492.089 23.9502 485.168 22.4 478.054 22.4C470.587 22.4 464.811 23.8445 460.725 26.7335C456.675 29.5872 454.65 33.6389 454.65 38.8884C454.65 41.9535 455.125 44.543 456.076 46.6569C457.063 48.7356 458.612 50.5852 460.725 52.2059C462.874 53.8265 466.22 55.5881 470.763 57.4906C473.933 58.8294 476.469 60.0096 478.371 61.0314C480.273 62.0178 481.611 62.9162 482.386 63.7266C483.161 64.5017 483.548 65.5234 483.548 66.7917C483.548 70.1739 480.625 71.8651 474.778 71.8651C471.925 71.8651 468.615 71.3894 464.846 70.4382C461.113 69.4869 457.749 68.3067 454.756 66.8974V80.2149C457.397 81.3423 460.232 82.1879 463.261 82.7516C466.29 83.3505 469.953 83.65 474.25 83.65C482.632 83.65 488.919 82.0646 493.11 78.8937ZM560.046 58.1284C560.249 55.3196 560.35 53.8071 560.35 53.5911C560.35 47.5412 559.101 42.2477 556.604 37.7103C554.175 33.1009 550.8 29.5718 546.481 27.1231C542.161 24.6744 537.336 23.45 532.004 23.45C526.538 23.45 521.577 24.7464 517.123 27.3392C512.736 29.8599 509.26 33.425 506.696 38.0344C504.199 42.5717 502.95 47.6853 502.95 53.375C502.95 59.1367 504.232 64.2863 506.797 68.8236C509.361 73.361 513.006 76.9261 517.73 79.5189C522.454 82.0396 527.887 83.3 534.029 83.3C543.882 83.3 551.374 80.1671 556.503 73.9012L548.101 64.1782C546.211 66.1228 544.152 67.5633 541.925 68.4995C539.766 69.3638 537.269 69.7959 534.434 69.7959C530.317 69.7959 526.875 68.7516 524.108 66.663C521.341 64.5744 519.586 61.7295 518.844 58.1284H560.046ZM523.096 39.4388C525.525 37.2782 528.529 36.1978 532.105 36.1978C535.615 36.1978 538.585 37.3142 541.014 39.5468C543.444 41.7075 544.929 44.6244 545.468 48.2975H518.641C519.181 44.5523 520.666 41.5995 523.096 39.4388ZM435.459 74.0185L438.483 82.2208H449.4V42.019C449.4 34.824 447.35 29.4638 443.25 25.9383C439.149 22.4128 433.255 20.65 425.567 20.65C417.537 20.65 410.225 22.4667 403.63 26.1002L408.807 37.2164C414.992 34.3024 420.373 32.8454 424.952 32.8454C430.897 32.8454 433.87 35.9033 433.87 42.019V44.6631L423.927 44.9869C415.35 45.3107 408.927 47.0015 404.655 50.0593C400.418 53.0812 398.3 57.7939 398.3 64.1974C398.3 70.3131 399.872 75.0258 403.015 78.3355C406.193 81.6452 410.533 83.3 416.034 83.3C420.51 83.3 424.132 82.6345 426.9 81.3034C429.701 79.9364 432.418 77.5081 435.049 74.0185H435.459ZM427.822 54.4842L433.87 54.2684V59.2329C433.87 62.8663 432.777 65.7803 430.59 67.9748C428.437 70.1692 425.55 71.2664 421.928 71.2664C416.871 71.2664 414.342 68.9461 414.342 64.3053C414.342 61.0676 415.453 58.6573 417.674 57.0744C419.895 55.4915 423.278 54.6281 427.822 54.4842Z" fill="#9ABD55"/>
</svg>
