<svg width="464" height="84" viewBox="0 0 464 84" fill="none" xmlns="http://www.w3.org/2000/svg">
<path fill-rule="evenodd" clip-rule="evenodd" d="M440.176 42C440.176 65.196 421.925 84 399.412 84C376.898 84 358.647 65.196 358.647 42C358.647 18.804 376.898 0 399.412 0C421.925 0 440.176 18.804 440.176 42ZM417.941 42.2059C417.941 54.145 409.83 63.8235 399.824 63.8235C389.817 63.8235 381.706 54.145 381.706 42.2059C381.706 30.2668 389.817 20.5882 399.824 20.5882C409.83 20.5882 417.941 30.2668 417.941 42.2059Z" fill="#0C2355"/>
<path d="M292.048 59.9721C292.048 56.6355 288.136 53.1093 280.31 49.3936C278.031 48.4078 276.018 47.4978 274.27 46.6636C272.599 45.7537 270.699 44.5404 268.572 43.0237C266.521 41.4313 264.811 39.8009 263.444 38.1326C262.152 36.4643 261.012 34.3789 260.025 31.8765C259.113 29.3741 258.695 26.682 258.771 23.8004C258.771 17.4306 261.126 12.0087 265.837 7.53461C270.547 3.06056 276.777 0.823529 284.527 0.823529C294.707 0.823529 302.533 3.74303 308.003 9.58205L298.202 23.2317C295.999 21.1843 294.062 19.7814 292.39 19.0231C290.795 18.2647 288.705 17.8856 286.122 17.8856C283.615 17.8856 281.64 18.4164 280.196 19.478C278.829 20.5397 278.145 21.9805 278.145 23.8004C278.145 25.8479 278.943 27.6679 280.538 29.2603C282.21 30.8528 284.261 32.1798 286.692 33.2415C289.199 34.2273 291.896 35.4785 294.783 36.9951C297.67 38.5118 300.33 40.1421 302.761 41.8863C305.268 43.5545 307.319 45.9432 308.915 49.0523C310.586 52.0856 311.422 55.6497 311.422 59.7446C311.422 66.5694 308.801 72.1809 303.559 76.5791C298.468 80.9774 291.972 83.1765 284.071 83.1765C278.297 83.1765 272.827 82.0011 267.66 79.6503C262.418 77.2995 258.885 74.1146 257.062 70.0956L267.432 57.6971C269.484 60.3512 272.067 62.4366 275.182 63.9532C278.297 65.394 281.412 66.1144 284.527 66.1144C286.882 66.1144 288.705 65.5836 289.997 64.5219C291.365 63.3845 292.048 61.8678 292.048 59.9721Z" fill="#0C2355"/>
<path d="M244.588 81.9412H223.588V2.05882H244.588V81.9412Z" fill="#0C2355"/>
<path d="M346.706 81.9412H325.706V2.05882H346.706V81.9412Z" fill="#0C2355"/>
<path d="M48.4342 81.8115H0V2.18848H47.2945V19.2506H20.7046V33.2415H45.9345V50.3035H20.7046V64.7494H48.4342V81.8115Z" fill="#0C2355"/>
<path fill-rule="evenodd" clip-rule="evenodd" d="M59.7059 81.7134H61.53C65.8935 81.7134 69.7921 81.7514 73.2257 81.8273C76.6593 81.9032 79.771 81.9412 82.5608 81.9412C96.2953 81.9412 106.882 78.1068 114.322 70.4381C121.833 62.6934 125.588 52.9366 125.588 41.1677C125.588 29.7026 122.083 20.2495 115.073 12.8085C108.063 5.36754 97.5113 1.64706 83.4192 1.64706C82.9185 1.64706 82.1674 1.68503 81.1659 1.76096C80.1645 1.76096 78.7338 1.79891 76.8739 1.87483H71.9381C68.0038 1.95078 64.4271 1.98873 61.2081 1.98873H59.7059V81.7134ZM102.529 42C102.529 53.8254 92.943 63.4118 81.1176 63.4118V20.5882C92.943 20.5882 102.529 30.1746 102.529 42Z" fill="#0C2355"/>
<g opacity="0.9">
<path d="M150.544 55.3361L166.765 82.7647L214.735 1.64706H183.74L150.544 55.3361Z" fill="#939698"/>
<path d="M151.185 1.64706H118.794L134.575 28.332L151.185 1.64706Z" fill="#939698"/>
</g>
<path d="M448.13 9.45812C448.13 10.5705 447.727 11.4379 446.92 12.0604C446.113 12.6829 445.018 12.9941 443.635 12.9941C442.136 12.9941 440.983 12.801 440.177 12.4149V10.997C440.695 11.216 441.26 11.3889 441.871 11.5157C442.482 11.6425 443.087 11.7059 443.687 11.7059C444.666 11.7059 445.404 11.5215 445.9 11.1526C446.395 10.778 446.643 10.2593 446.643 9.59645C446.643 9.15841 446.554 8.80107 446.375 8.52441C446.202 8.242 445.908 7.98263 445.493 7.74632C445.084 7.51001 444.459 7.24201 443.617 6.9423C442.442 6.52155 441.6 6.023 441.093 5.44663C440.591 4.87027 440.341 4.11812 440.341 3.19017C440.341 2.21612 440.707 1.44091 441.439 0.864545C442.171 0.288182 443.139 0 444.344 0C445.6 0 446.756 0.230545 447.81 0.691636L447.352 1.97116C446.309 1.53313 445.295 1.31411 444.309 1.31411C443.531 1.31411 442.923 1.48125 442.485 1.81554C442.047 2.14984 441.828 2.61381 441.828 3.20746C441.828 3.6455 441.908 4.00573 442.07 4.28814C442.231 4.5648 442.502 4.82128 442.883 5.05759C443.269 5.28813 443.857 5.54462 444.646 5.82703C445.972 6.29965 446.883 6.80685 447.378 7.34863C447.88 7.89041 448.13 8.59358 448.13 9.45812Z" fill="#0C2355"/>
<path d="M456.309 12.8212L452.021 1.6167H451.952C452.032 2.5043 452.073 3.55904 452.073 4.78093V12.8212H450.715V0.181554H452.929L456.931 10.608H457.001L461.038 0.181554H463.234V12.8212H461.764V4.67719C461.764 3.74348 461.805 2.72908 461.885 1.63399H461.816L457.493 12.8212H456.309Z" fill="#0C2355"/>
</svg>
