<svg width="21" height="20" viewBox="0 0 21 20" fill="none" xmlns="http://www.w3.org/2000/svg">
<path fill-rule="evenodd" clip-rule="evenodd" d="M10.3408 2C5.92254 2 2.34082 5.58172 2.34082 10C2.34082 14.4183 5.92254 18 10.3408 18C14.7591 18 18.3408 14.4183 18.3408 10C18.3408 5.58172 14.7591 2 10.3408 2ZM0.34082 10C0.34082 4.47715 4.81797 0 10.3408 0C15.8637 0 20.3408 4.47715 20.3408 10C20.3408 15.5228 15.8637 20 10.3408 20C4.81797 20 0.34082 15.5228 0.34082 10ZM5.34082 10C5.34082 9.44771 5.78854 9 6.34082 9H9.34082V6C9.34082 5.44772 9.78854 5 10.3408 5C10.8931 5 11.3408 5.44772 11.3408 6V9H14.3408C14.8931 9 15.3408 9.44771 15.3408 10C15.3408 10.5523 14.8931 11 14.3408 11H11.3408V14C11.3408 14.5523 10.8931 15 10.3408 15C9.78854 15 9.34082 14.5523 9.34082 14V11H6.34082C5.78854 11 5.34082 10.5523 5.34082 10Z" fill="#939698"/>
</svg>
