<svg width="23" height="19" viewBox="0 0 23 19" fill="none" xmlns="http://www.w3.org/2000/svg">
<path d="M10.291 14C10.291 13.4477 10.7387 13 11.291 13H11.391C11.9433 13 12.391 13.4477 12.391 14V14.1C12.391 14.6523 11.9433 15.1 11.391 15.1H11.291C10.7387 15.1 10.291 14.6523 10.291 14.1V14Z" fill="#939698"/>
<path d="M12.3408 7C12.3408 6.44772 11.8931 6 11.3408 6C10.7885 6 10.3408 6.44772 10.3408 7V11C10.3408 11.5523 10.7885 12 11.3408 12C11.8931 12 12.3408 11.5523 12.3408 11V7Z" fill="#939698"/>
<path fill-rule="evenodd" clip-rule="evenodd" d="M9.60892 1C10.3787 -0.333332 12.3032 -0.333334 13.073 1L21.7333 16C22.5031 17.3333 21.5408 19 20.0012 19H2.68072C1.14112 19 0.178867 17.3333 0.948667 16L9.60892 1ZM11.341 2L2.68072 17H20.0012L11.341 2Z" fill="#939698"/>
</svg>
