<svg width="19" height="22" viewBox="0 0 19 22" fill="none" xmlns="http://www.w3.org/2000/svg">
<path d="M2.34082 16H16.3408V9.031C16.3408 5.148 13.2068 2 9.34082 2C5.47482 2 2.34082 5.148 2.34082 9.031V16ZM9.34082 0C14.3108 0 18.3408 4.043 18.3408 9.031V18H0.34082V9.031C0.34082 4.043 4.37082 0 9.34082 0ZM6.84082 19H11.8408C11.8408 19.663 11.5774 20.2989 11.1086 20.7678C10.6397 21.2366 10.0039 21.5 9.34082 21.5C8.67778 21.5 8.04189 21.2366 7.57305 20.7678C7.10421 20.2989 6.84082 19.663 6.84082 19Z" fill="#939698"/>
</svg>
