<svg width="25" height="24" viewBox="0 0 25 24" fill="none" xmlns="http://www.w3.org/2000/svg">
<path d="M4.34082 6H20.3408" stroke="#939698" stroke-width="2" stroke-linecap="round" stroke-linejoin="round"/>
<path d="M11.3408 10C11.3408 9.44772 10.8931 9 10.3408 9C9.78854 9 9.34082 9.44772 9.34082 10L9.34082 17C9.34082 17.5523 9.78854 18 10.3408 18C10.8931 18 11.3408 17.5523 11.3408 17L11.3408 10Z" fill="#939698"/>
<path d="M15.3408 10C15.3408 9.44772 14.8931 9 14.3408 9C13.7885 9 13.3408 9.44772 13.3408 10V17C13.3408 17.5523 13.7885 18 14.3408 18C14.8931 18 15.3408 17.5523 15.3408 17V10Z" fill="#939698"/>
<path fill-rule="evenodd" clip-rule="evenodd" d="M9.34082 2C8.23625 2 7.34082 2.89543 7.34082 4V5H6.34082C5.78854 5 5.34082 5.44772 5.34082 6V20C5.34082 21.1046 6.23625 22 7.34082 22H17.3408C18.4454 22 19.3408 21.1046 19.3408 20V6C19.3408 5.44772 18.8931 5 18.3408 5H17.3408V4C17.3408 2.89543 16.4454 2 15.3408 2H9.34082ZM15.3408 5V4H9.34082V5H15.3408ZM7.34082 7V20H17.3408V7H7.34082Z" fill="#939698"/>
</svg>
