<svg width="21" height="20" viewBox="0 0 21 20" fill="none" xmlns="http://www.w3.org/2000/svg">
<path d="M5.34082 4V1C5.34082 0.734784 5.44618 0.48043 5.63371 0.292893C5.82125 0.105357 6.0756 0 6.34082 0H14.3408C14.606 0 14.8604 0.105357 15.0479 0.292893C15.2355 0.48043 15.3408 0.734784 15.3408 1V4H19.3408C19.606 4 19.8604 4.10536 20.0479 4.29289C20.2355 4.48043 20.3408 4.73478 20.3408 5V19C20.3408 19.2652 20.2355 19.5196 20.0479 19.7071C19.8604 19.8946 19.606 20 19.3408 20H1.34082C1.0756 20 0.82125 19.8946 0.633713 19.7071C0.446177 19.5196 0.34082 19.2652 0.34082 19V5C0.34082 4.73478 0.446177 4.48043 0.633713 4.29289C0.82125 4.10536 1.0756 4 1.34082 4H5.34082ZM2.34082 15V18H18.3408V15H2.34082ZM2.34082 13H18.3408V6H2.34082V13ZM7.34082 2V4H13.3408V2H7.34082ZM9.34082 10H11.3408V12H9.34082V10Z" fill="#939698"/>
</svg>
