<svg width="21" height="20" viewBox="0 0 21 20" fill="none" xmlns="http://www.w3.org/2000/svg">
<path d="M16.7046 13.536L15.2906 12.12L16.7046 10.706C17.1722 10.2424 17.5437 9.69108 17.7977 9.08358C18.0516 8.47608 18.1831 7.8244 18.1846 7.16595C18.186 6.5075 18.0574 5.85525 17.8061 5.24665C17.5547 4.63804 17.1857 4.08507 16.7201 3.61947C16.2545 3.15387 15.7015 2.78483 15.0929 2.53351C14.4843 2.2822 13.8321 2.15357 13.1736 2.15502C12.5152 2.15646 11.8635 2.28794 11.256 2.54192C10.6485 2.79589 10.0971 3.16736 9.63359 3.63499L8.21959 5.04999L6.80459 3.63599L8.22059 2.22199C9.53341 0.909167 11.314 0.171631 13.1706 0.171631C15.0272 0.171631 16.8078 0.909167 18.1206 2.22199C19.4334 3.53481 20.1709 5.31538 20.1709 7.17199C20.1709 9.0286 19.4334 10.8092 18.1206 12.122L16.7056 13.536H16.7046ZM13.8766 16.364L12.4616 17.778C11.1488 19.0908 9.3682 19.8283 7.51159 19.8283C5.65498 19.8283 3.87441 19.0908 2.56159 17.778C1.24877 16.4652 0.51123 14.6846 0.51123 12.828C0.51123 10.9714 1.24877 9.19081 2.56159 7.87799L3.97659 6.46399L5.39059 7.87999L3.97659 9.29399C3.50896 9.75754 3.13749 10.3089 2.88352 10.9164C2.62954 11.5239 2.49806 12.1756 2.49662 12.834C2.49517 13.4925 2.6238 14.1447 2.87511 14.7533C3.12643 15.3619 3.49547 15.9149 3.96107 16.3805C4.42667 16.8461 4.97964 17.2152 5.58825 17.4665C6.19685 17.7178 6.8491 17.8464 7.50755 17.845C8.166 17.8435 8.81768 17.712 9.42518 17.4581C10.0327 17.2041 10.584 16.8326 11.0476 16.365L12.4616 14.951L13.8766 16.365V16.364ZM13.1686 5.75699L14.5836 7.17199L7.51259 14.242L6.09759 12.828L13.1686 5.75799V5.75699Z" fill="#939698"/>
</svg>
