<svg width="11" height="18" viewBox="0 0 11 18" fill="none" xmlns="http://www.w3.org/2000/svg">
<path d="M6.14082 7.9C3.87082 7.31 3.14082 6.7 3.14082 5.75C3.14082 4.66 4.15082 3.9 5.84082 3.9C7.26082 3.9 7.97082 4.44 8.23082 5.3C8.35082 5.7 8.68082 6 9.10082 6H9.40082C10.0608 6 10.5308 5.35 10.3008 4.73C9.88082 3.55 8.90082 2.57 7.34082 2.19V1.5C7.34082 0.67 6.67082 0 5.84082 0C5.01082 0 4.34082 0.67 4.34082 1.5V2.16C2.40082 2.58 0.84082 3.84 0.84082 5.77C0.84082 8.08 2.75082 9.23 5.54082 9.9C8.04082 10.5 8.54082 11.38 8.54082 12.31C8.54082 13 8.05082 14.1 5.84082 14.1C4.19082 14.1 3.34082 13.51 3.01082 12.67C2.86082 12.28 2.52082 12 2.11082 12H1.83082C1.16082 12 0.69082 12.68 0.94082 13.3C1.51082 14.69 2.84082 15.51 4.34082 15.83V16.5C4.34082 17.33 5.01082 18 5.84082 18C6.67082 18 7.34082 17.33 7.34082 16.5V15.85C9.29082 15.48 10.8408 14.35 10.8408 12.3C10.8408 9.46 8.41082 8.49 6.14082 7.9Z" fill="#9ABD55"/>
</svg>
