<svg width="19" height="18" viewBox="0 0 19 18" fill="none" xmlns="http://www.w3.org/2000/svg">
<path d="M16.3408 10V15C16.3408 15.55 15.8908 16 15.3408 16H3.34082C2.79082 16 2.34082 15.55 2.34082 15V10C2.34082 9.45 1.89082 9 1.34082 9C0.79082 9 0.34082 9.45 0.34082 10V16C0.34082 17.1 1.24082 18 2.34082 18H16.3408C17.4408 18 18.3408 17.1 18.3408 16V10C18.3408 9.45 17.8908 9 17.3408 9C16.7908 9 16.3408 9.45 16.3408 10ZM10.3408 9.67L12.2208 7.79C12.6108 7.4 13.2408 7.4 13.6308 7.79C14.0208 8.18 14.0208 8.81 13.6308 9.2L10.0408 12.79C9.65082 13.18 9.02082 13.18 8.63082 12.79L5.04082 9.2C4.65082 8.81 4.65082 8.18 5.04082 7.79C5.43082 7.4 6.06082 7.4 6.45082 7.79L8.34082 9.67V1C8.34082 0.45 8.79082 0 9.34082 0C9.89082 0 10.3408 0.45 10.3408 1V9.67Z" fill="#939698"/>
</svg>
