<svg width="15" height="16" viewBox="0 0 15 16" fill="none" xmlns="http://www.w3.org/2000/svg">
<path d="M13.5708 4.04992L7.92082 8.07992C7.57082 8.32992 7.11082 8.32992 6.76082 8.08992L1.11082 4.04991C0.630821 3.70992 0.34082 3.14991 0.34082 2.55991C0.34082 1.06991 2.02082 0.199915 3.23082 1.06992L7.34082 3.99992L11.4508 1.06992C12.6608 0.199916 14.3408 1.06992 14.3408 2.55992C14.3408 3.14992 14.0508 3.69992 13.5708 4.04992Z" fill="#939698"/>
<path d="M13.5708 11.0399L7.92082 15.0799C7.57082 15.3299 7.11082 15.3299 6.76082 15.0899L1.11082 11.0499C0.630821 10.7099 0.34082 10.1499 0.34082 9.55992C0.34082 8.06992 2.02082 7.19991 3.23082 8.06991L7.34082 10.9999L11.4508 8.06992C12.6608 7.20992 14.3408 8.06992 14.3408 9.55992C14.3408 10.1499 14.0508 10.6999 13.5708 11.0399Z" fill="#939698"/>
</svg>
