<svg width="17" height="18" viewBox="0 0 17 18" fill="none" xmlns="http://www.w3.org/2000/svg">
<path d="M5.34082 2C4.78854 2 4.34082 2.44772 4.34082 3C4.34082 3.55228 4.78854 4 5.34082 4C5.89311 4 6.34082 3.55228 6.34082 3C6.34082 2.44772 5.89311 2 5.34082 2ZM2.51153 2C2.92336 0.834808 4.0346 0 5.34082 0C6.64704 0 7.75828 0.834808 8.17011 2H15.3408C15.8931 2 16.3408 2.44772 16.3408 3C16.3408 3.55228 15.8931 4 15.3408 4H8.17011C7.75828 5.16519 6.64704 6 5.34082 6C4.0346 6 2.92336 5.16519 2.51153 4H1.34082C0.788536 4 0.34082 3.55228 0.34082 3C0.34082 2.44772 0.788536 2 1.34082 2H2.51153ZM11.3408 8C10.7885 8 10.3408 8.44772 10.3408 9C10.3408 9.55229 10.7885 10 11.3408 10C11.8931 10 12.3408 9.55229 12.3408 9C12.3408 8.44772 11.8931 8 11.3408 8ZM8.51153 8C8.92336 6.83481 10.0346 6 11.3408 6C12.647 6 13.7583 6.83481 14.1701 8H15.3408C15.8931 8 16.3408 8.44772 16.3408 9C16.3408 9.55229 15.8931 10 15.3408 10H14.1701C13.7583 11.1652 12.647 12 11.3408 12C10.0346 12 8.92336 11.1652 8.51153 10H1.34082C0.788536 10 0.34082 9.55229 0.34082 9C0.34082 8.44772 0.788536 8 1.34082 8H8.51153ZM5.34082 14C4.78854 14 4.34082 14.4477 4.34082 15C4.34082 15.5523 4.78854 16 5.34082 16C5.89311 16 6.34082 15.5523 6.34082 15C6.34082 14.4477 5.89311 14 5.34082 14ZM2.51153 14C2.92336 12.8348 4.0346 12 5.34082 12C6.64704 12 7.75828 12.8348 8.17011 14H15.3408C15.8931 14 16.3408 14.4477 16.3408 15C16.3408 15.5523 15.8931 16 15.3408 16H8.17011C7.75828 17.1652 6.64704 18 5.34082 18C4.0346 18 2.92336 17.1652 2.51153 16H1.34082C0.788536 16 0.34082 15.5523 0.34082 15C0.34082 14.4477 0.788536 14 1.34082 14H2.51153Z" fill="#939698"/>
</svg>
