<svg width="22" height="19" viewBox="0 0 22 19" fill="none" xmlns="http://www.w3.org/2000/svg">
<path d="M20.3408 8.255C19.73 7.82855 19.0548 7.50275 18.3408 7.29V4H9.92682L7.92682 2H2.34082V16H9.63082C9.84582 16.722 10.1738 17.396 10.5958 18H1.34082C1.0756 18 0.82125 17.8946 0.633713 17.7071C0.446177 17.5196 0.34082 17.2652 0.34082 17V1C0.34082 0.734784 0.446177 0.48043 0.633713 0.292893C0.82125 0.105357 1.0756 0 1.34082 0H8.75482L10.7548 2H19.3408C19.606 2 19.8604 2.10536 20.0479 2.29289C20.2355 2.48043 20.3408 2.73478 20.3408 3V8.255ZM16.3408 19C15.0147 19 13.743 18.4732 12.8053 17.5355C11.8676 16.5979 11.3408 15.3261 11.3408 14C11.3408 12.6739 11.8676 11.4021 12.8053 10.4645C13.743 9.52678 15.0147 9 16.3408 9C17.6669 9 18.9387 9.52678 19.8764 10.4645C20.814 11.4021 21.3408 12.6739 21.3408 14C21.3408 15.3261 20.814 16.5979 19.8764 17.5355C18.9387 18.4732 17.6669 19 16.3408 19ZM15.0478 16.708C15.6078 16.9759 16.237 17.0635 16.8489 16.9588C17.4607 16.854 18.025 16.5621 18.4639 16.1231C18.9029 15.6842 19.1949 15.1199 19.2996 14.5081C19.4044 13.8962 19.3167 13.267 19.0488 12.707L15.0478 16.707V16.708ZM13.6328 15.293L17.6338 11.293C17.0739 11.0251 16.4446 10.9375 15.8328 11.0422C15.2209 11.147 14.6566 11.4389 14.2177 11.8779C13.7788 12.3168 13.4868 12.8811 13.382 13.4929C13.2773 14.1048 13.3649 14.734 13.6328 15.294V15.293Z" fill="#939698"/>
</svg>
