<svg width="21" height="18" viewBox="0 0 21 18" fill="none" xmlns="http://www.w3.org/2000/svg">
<path d="M10.7548 2H19.3408C19.606 2 19.8604 2.10536 20.0479 2.29289C20.2355 2.48043 20.3408 2.73478 20.3408 3V17C20.3408 17.2652 20.2355 17.5196 20.0479 17.7071C19.8604 17.8946 19.606 18 19.3408 18H1.34082C1.0756 18 0.82125 17.8946 0.633713 17.7071C0.446177 17.5196 0.34082 17.2652 0.34082 17V1C0.34082 0.734784 0.446177 0.48043 0.633713 0.292893C0.82125 0.105357 1.0756 0 1.34082 0H8.75482L10.7548 2ZM2.34082 2V16H18.3408V4H9.92682L7.92682 2H2.34082ZM11.3408 10H14.3408L10.3408 14L6.34082 10H9.34082V6H11.3408V10Z" fill="#939698"/>
</svg>
