<svg width="22" height="20" viewBox="0 0 22 20" fill="none" xmlns="http://www.w3.org/2000/svg">
<path d="M20.3408 10H18.3408V4H9.92682L7.92682 2H2.34082V16H11.3408V18H1.34082C1.0756 18 0.82125 17.8946 0.633713 17.7071C0.446177 17.5196 0.34082 17.2652 0.34082 17V1C0.34082 0.734784 0.446177 0.48043 0.633713 0.292893C0.82125 0.105357 1.0756 0 1.34082 0H8.75482L10.7548 2H19.3408C19.606 2 19.8604 2.10536 20.0479 2.29289C20.2355 2.48043 20.3408 2.73478 20.3408 3V10ZM16.3408 14V10.5L21.3408 15L16.3408 19.5V16H13.3408V14H16.3408Z" fill="#939698"/>
</svg>
