<svg width="23" height="20" viewBox="0 0 23 20" fill="none" xmlns="http://www.w3.org/2000/svg">
<path d="M5.34082 18H17.3408V8.157L11.3408 2.703L5.34082 8.157V18ZM18.3408 20H4.34082C4.0756 20 3.82125 19.8946 3.63371 19.7071C3.44618 19.5196 3.34082 19.2652 3.34082 19V10H0.34082L10.6678 0.611996C10.8519 0.444474 11.0919 0.351639 11.3408 0.351639C11.5897 0.351639 11.8297 0.444474 12.0138 0.611996L22.3408 10H19.3408V19C19.3408 19.2652 19.2355 19.5196 19.0479 19.7071C18.8604 19.8946 18.606 20 18.3408 20ZM6.84082 12H8.84082C8.84082 12.663 9.10421 13.2989 9.57305 13.7678C10.0419 14.2366 10.6778 14.5 11.3408 14.5C12.0039 14.5 12.6397 14.2366 13.1086 13.7678C13.5774 13.2989 13.8408 12.663 13.8408 12H15.8408C15.8408 13.1935 15.3667 14.3381 14.5228 15.182C13.6789 16.0259 12.5343 16.5 11.3408 16.5C10.1473 16.5 9.00275 16.0259 8.15884 15.182C7.31493 14.3381 6.84082 13.1935 6.84082 12Z" fill="#939698"/>
</svg>
