<svg width="21" height="20" viewBox="0 0 21 20" fill="none" xmlns="http://www.w3.org/2000/svg">
<path d="M10.3408 7C9.54517 7 8.78211 7.31607 8.2195 7.87868C7.65689 8.44129 7.34082 9.20435 7.34082 10C7.34082 10.7956 7.65689 11.5587 8.2195 12.1213C8.78211 12.6839 9.54517 13 10.3408 13C11.1365 13 11.8995 12.6839 12.4621 12.1213C13.0247 11.5587 13.3408 10.7956 13.3408 10C13.3408 9.20435 13.0247 8.44129 12.4621 7.87868C11.8995 7.31607 11.1365 7 10.3408 7ZM10.3408 5C11.6669 5 12.9387 5.52678 13.8764 6.46447C14.814 7.40215 15.3408 8.67392 15.3408 10C15.3408 11.3261 14.814 12.5979 13.8764 13.5355C12.9387 14.4732 11.6669 15 10.3408 15C9.01474 15 7.74297 14.4732 6.80529 13.5355C5.8676 12.5979 5.34082 11.3261 5.34082 10C5.34082 8.67392 5.8676 7.40215 6.80529 6.46447C7.74297 5.52678 9.01474 5 10.3408 5ZM16.8408 4.75C16.8408 5.08152 16.7091 5.39946 16.4747 5.63388C16.2403 5.8683 15.9223 6 15.5908 6C15.2593 6 14.9414 5.8683 14.7069 5.63388C14.4725 5.39946 14.3408 5.08152 14.3408 4.75C14.3408 4.41848 14.4725 4.10054 14.7069 3.86612C14.9414 3.6317 15.2593 3.5 15.5908 3.5C15.9223 3.5 16.2403 3.6317 16.4747 3.86612C16.7091 4.10054 16.8408 4.41848 16.8408 4.75ZM10.3408 2C7.86682 2 7.46282 2.007 6.31182 2.058C5.52782 2.095 5.00182 2.2 4.51382 2.39C4.07982 2.558 3.76682 2.759 3.43382 3.093C3.12083 3.3954 2.88017 3.76458 2.72982 4.173C2.53982 4.663 2.43482 5.188 2.39882 5.971C2.34682 7.075 2.34082 7.461 2.34082 10C2.34082 12.474 2.34782 12.878 2.39882 14.029C2.43582 14.812 2.54082 15.339 2.72982 15.826C2.89982 16.261 3.09982 16.574 3.43182 16.906C3.76882 17.242 4.08182 17.443 4.51182 17.609C5.00582 17.8 5.53182 17.906 6.31182 17.942C7.41582 17.994 7.80182 18 10.3408 18C12.8148 18 13.2188 17.993 14.3698 17.942C15.1518 17.905 15.6788 17.8 16.1668 17.611C16.5998 17.442 16.9148 17.241 17.2468 16.909C17.5838 16.572 17.7848 16.259 17.9508 15.829C18.1408 15.336 18.2468 14.809 18.2828 14.029C18.3348 12.925 18.3408 12.539 18.3408 10C18.3408 7.526 18.3338 7.122 18.2828 5.971C18.2458 5.189 18.1408 4.661 17.9508 4.173C17.8001 3.765 17.5599 3.39596 17.2478 3.093C16.9456 2.77985 16.5763 2.53917 16.1678 2.389C15.6778 2.199 15.1518 2.094 14.3698 2.058C13.2658 2.006 12.8798 2 10.3408 2ZM10.3408 0C13.0578 0 13.3968 0.00999994 14.4628 0.0599999C15.5278 0.11 16.2528 0.277 16.8908 0.525C17.5508 0.779 18.1068 1.123 18.6628 1.678C19.1713 2.1779 19.5648 2.78259 19.8158 3.45C20.0628 4.087 20.2308 4.813 20.2808 5.878C20.3278 6.944 20.3408 7.283 20.3408 10C20.3408 12.717 20.3308 13.056 20.2808 14.122C20.2308 15.187 20.0628 15.912 19.8158 16.55C19.5655 17.2178 19.1719 17.8226 18.6628 18.322C18.1628 18.8303 17.5581 19.2238 16.8908 19.475C16.2538 19.722 15.5278 19.89 14.4628 19.94C13.3968 19.987 13.0578 20 10.3408 20C7.62382 20 7.28482 19.99 6.21882 19.94C5.15382 19.89 4.42882 19.722 3.79082 19.475C3.12315 19.2245 2.51835 18.8309 2.01882 18.322C1.51023 17.8222 1.11675 17.2175 0.86582 16.55C0.61782 15.913 0.45082 15.187 0.40082 14.122C0.35382 13.056 0.34082 12.717 0.34082 10C0.34082 7.283 0.35082 6.944 0.40082 5.878C0.45082 4.812 0.61782 4.088 0.86582 3.45C1.11606 2.78218 1.50962 2.17732 2.01882 1.678C2.51849 1.16923 3.12325 0.775729 3.79082 0.525C4.42882 0.277 5.15282 0.11 6.21882 0.0599999C7.28482 0.0129999 7.62382 0 10.3408 0Z" fill="#939698"/>
</svg>
