<svg width="19" height="18" viewBox="0 0 19 18" fill="none" xmlns="http://www.w3.org/2000/svg">
<path d="M1.34082 0H17.3408C17.606 0 17.8604 0.105357 18.0479 0.292893C18.2355 0.48043 18.3408 0.734784 18.3408 1V17C18.3408 17.2652 18.2355 17.5196 18.0479 17.7071C17.8604 17.8946 17.606 18 17.3408 18H1.34082C1.0756 18 0.82125 17.8946 0.633713 17.7071C0.446177 17.5196 0.34082 17.2652 0.34082 17V1C0.34082 0.734784 0.446177 0.48043 0.633713 0.292893C0.82125 0.105357 1.0756 0 1.34082 0ZM2.34082 2V16H16.3408V2H2.34082ZM4.84082 6C4.443 6 4.06146 5.84196 3.78016 5.56066C3.49886 5.27936 3.34082 4.89782 3.34082 4.5C3.34082 4.10218 3.49886 3.72064 3.78016 3.43934C4.06146 3.15804 4.443 3 4.84082 3C5.23865 3 5.62018 3.15804 5.90148 3.43934C6.18279 3.72064 6.34082 4.10218 6.34082 4.5C6.34082 4.89782 6.18279 5.27936 5.90148 5.56066C5.62018 5.84196 5.23865 6 4.84082 6ZM3.84082 7H5.84082V14.5H3.84082V7ZM9.34082 7.43C9.92482 6.865 10.6068 6.5 11.3408 6.5C13.4118 6.5 14.8408 8.179 14.8408 10.25V14.5H12.8408V10.25C12.8408 9.78587 12.6564 9.34075 12.3283 9.01256C12.0001 8.68437 11.5549 8.5 11.0908 8.5C10.6267 8.5 10.1816 8.68437 9.85338 9.01256C9.52519 9.34075 9.34082 9.78587 9.34082 10.25V14.5H7.34082V7H9.34082V7.43Z" fill="#939698"/>
</svg>
