<svg width="19" height="22" viewBox="0 0 19 22" fill="none" xmlns="http://www.w3.org/2000/svg">
<path d="M9.34082 18.9L14.2908 13.95C15.2697 12.971 15.9363 11.7237 16.2064 10.3659C16.4764 9.00804 16.3377 7.60061 15.8079 6.32157C15.2781 5.04253 14.3809 3.94932 13.2297 3.18018C12.0786 2.41104 10.7253 2.00052 9.34082 2.00052C7.95639 2.00052 6.60304 2.41104 5.45191 3.18018C4.30078 3.94932 3.40357 5.04253 2.87374 6.32157C2.3439 7.60061 2.20524 9.00804 2.47528 10.3659C2.74531 11.7237 3.41193 12.971 4.39082 13.95L9.34082 18.9ZM9.34082 21.728L2.97682 15.364C1.71816 14.1053 0.861007 12.5017 0.513749 10.7559C0.166491 9.01004 0.344727 7.20044 1.02592 5.55591C1.70711 3.91139 2.86066 2.50579 4.3407 1.51686C5.82074 0.52793 7.5608 9.15527e-05 9.34082 9.15527e-05C11.1209 9.15527e-05 12.8609 0.52793 14.3409 1.51686C15.821 2.50579 16.9745 3.91139 17.6557 5.55591C18.3369 7.20044 18.5152 9.01004 18.1679 10.7559C17.8206 12.5017 16.9635 14.1053 15.7048 15.364L9.34082 21.728ZM9.34082 11C9.87126 11 10.38 10.7893 10.755 10.4142C11.1301 10.0392 11.3408 9.53045 11.3408 9.00001C11.3408 8.46958 11.1301 7.96087 10.755 7.5858C10.38 7.21073 9.87126 7.00001 9.34082 7.00001C8.81039 7.00001 8.30168 7.21073 7.92661 7.5858C7.55154 7.96087 7.34082 8.46958 7.34082 9.00001C7.34082 9.53045 7.55154 10.0392 7.92661 10.4142C8.30168 10.7893 8.81039 11 9.34082 11ZM9.34082 13C8.27996 13 7.26254 12.5786 6.5124 11.8284C5.76225 11.0783 5.34082 10.0609 5.34082 9.00001C5.34082 7.93915 5.76225 6.92173 6.5124 6.17159C7.26254 5.42144 8.27996 5.00001 9.34082 5.00001C10.4017 5.00001 11.4191 5.42144 12.1693 6.17159C12.9194 6.92173 13.3408 7.93915 13.3408 9.00001C13.3408 10.0609 12.9194 11.0783 12.1693 11.8284C11.4191 12.5786 10.4017 13 9.34082 13Z" fill="#939698"/>
</svg>
