<svg width="21" height="20" viewBox="0 0 21 20" fill="none" xmlns="http://www.w3.org/2000/svg">
<path d="M17.3408 20H3.34082C2.54517 20 1.78211 19.6839 1.2195 19.1213C0.656891 18.5587 0.34082 17.7956 0.34082 17V1C0.34082 0.734784 0.446177 0.48043 0.633713 0.292893C0.82125 0.105357 1.0756 0 1.34082 0H15.3408C15.606 0 15.8604 0.105357 16.0479 0.292893C16.2355 0.48043 16.3408 0.734784 16.3408 1V13H20.3408V17C20.3408 17.7956 20.0247 18.5587 19.4621 19.1213C18.8995 19.6839 18.1365 20 17.3408 20ZM16.3408 15V17C16.3408 17.2652 16.4462 17.5196 16.6337 17.7071C16.8212 17.8946 17.0756 18 17.3408 18C17.606 18 17.8604 17.8946 18.0479 17.7071C18.2355 17.5196 18.3408 17.2652 18.3408 17V15H16.3408ZM14.3408 18V2H2.34082V17C2.34082 17.2652 2.44618 17.5196 2.63371 17.7071C2.82125 17.8946 3.0756 18 3.34082 18H14.3408ZM4.34082 5H12.3408V7H4.34082V5ZM4.34082 9H12.3408V11H4.34082V9ZM4.34082 13H9.34082V15H4.34082V13Z" fill="#939698"/>
</svg>
