<svg width="20" height="18" viewBox="0 0 20 18" fill="none" xmlns="http://www.w3.org/2000/svg">
<path d="M15.1804 5.44286C15.1804 5.27717 15.3147 5.14286 15.4804 5.14286H19.1661C19.3318 5.14286 19.4661 5.27717 19.4661 5.44286V6.55714C19.4661 6.72283 19.3318 6.85714 19.1661 6.85714H15.4804C15.3147 6.85714 15.1804 6.72283 15.1804 6.55714V5.44286ZM13.4661 9.72857C13.4661 9.56289 13.6004 9.42857 13.7661 9.42857H19.1661C19.3318 9.42857 19.4661 9.56289 19.4661 9.72857V10.8429C19.4661 11.0085 19.3318 11.1429 19.1661 11.1429H13.7661C13.6004 11.1429 13.4661 11.0085 13.4661 10.8429V9.72857ZM16.0375 14.0143C16.0375 13.8486 16.1718 13.7143 16.3375 13.7143H19.1661C19.3318 13.7143 19.4661 13.8486 19.4661 14.0143V15.1286C19.4661 15.2943 19.3318 15.4286 19.1661 15.4286H16.3375C16.1718 15.4286 16.0375 15.2943 16.0375 15.1286V14.0143ZM0.908956 18C0.743271 18 0.608271 17.8656 0.615513 17.7001C0.6903 15.9905 1.40228 14.3664 2.61737 13.1513C3.90333 11.8653 5.64747 11.1429 7.4661 11.1429C9.28473 11.1429 11.0289 11.8653 12.3148 13.1513C13.5299 14.3664 14.2419 15.9905 14.3167 17.7001C14.3239 17.8656 14.1889 18 14.0232 18H12.909C12.7433 18 12.6099 17.8655 12.6002 17.7001C12.527 16.4455 11.9962 15.257 11.1026 14.3635C10.1382 13.399 8.83007 12.8571 7.4661 12.8571C6.10213 12.8571 4.79402 13.399 3.82955 14.3635C2.936 15.257 2.40521 16.4455 2.33198 17.7001C2.32233 17.8655 2.18893 18 2.02324 18H0.908956ZM7.4661 10.2857C4.62467 10.2857 2.32324 7.98429 2.32324 5.14286C2.32324 2.30143 4.62467 0 7.4661 0C10.3075 0 12.609 2.30143 12.609 5.14286C12.609 7.98429 10.3075 10.2857 7.4661 10.2857ZM7.4661 8.57143C9.36038 8.57143 10.8947 7.03714 10.8947 5.14286C10.8947 3.24857 9.36038 1.71429 7.4661 1.71429C5.57181 1.71429 4.03753 3.24857 4.03753 5.14286C4.03753 7.03714 5.57181 8.57143 7.4661 8.57143Z" fill="#939698"/>
</svg>
