<svg width="17" height="21" viewBox="0 0 17 21" fill="none" xmlns="http://www.w3.org/2000/svg">
<path d="M16.3408 21H14.3408V19C14.3408 18.2044 14.0247 17.4413 13.4621 16.8787C12.8995 16.3161 12.1365 16 11.3408 16H5.34082C4.54517 16 3.78211 16.3161 3.2195 16.8787C2.65689 17.4413 2.34082 18.2044 2.34082 19V21H0.34082V19C0.34082 17.6739 0.867604 16.4021 1.80529 15.4645C2.74297 14.5268 4.01474 14 5.34082 14H11.3408C12.6669 14 13.9387 14.5268 14.8764 15.4645C15.814 16.4021 16.3408 17.6739 16.3408 19V21ZM8.34082 12C7.55289 12 6.77267 11.8448 6.04472 11.5433C5.31677 11.2417 4.65533 10.7998 4.09818 10.2426C3.54103 9.68549 3.09907 9.02405 2.79754 8.2961C2.49601 7.56815 2.34082 6.78793 2.34082 6C2.34082 5.21207 2.49601 4.43185 2.79754 3.7039C3.09907 2.97595 3.54103 2.31451 4.09818 1.75736C4.65533 1.20021 5.31677 0.758251 6.04472 0.456723C6.77267 0.155195 7.55289 -1.17411e-08 8.34082 0C9.93212 2.37122e-08 11.4582 0.632141 12.5835 1.75736C13.7087 2.88258 14.3408 4.4087 14.3408 6C14.3408 7.5913 13.7087 9.11742 12.5835 10.2426C11.4582 11.3679 9.93212 12 8.34082 12ZM8.34082 10C9.40169 10 10.4191 9.57857 11.1692 8.82843C11.9194 8.07828 12.3408 7.06087 12.3408 6C12.3408 4.93913 11.9194 3.92172 11.1692 3.17157C10.4191 2.42143 9.40169 2 8.34082 2C7.27995 2 6.26254 2.42143 5.51239 3.17157C4.76225 3.92172 4.34082 4.93913 4.34082 6C4.34082 7.06087 4.76225 8.07828 5.51239 8.82843C6.26254 9.57857 7.27995 10 8.34082 10Z" fill="#939698"/>
</svg>
