<svg width="21" height="20" viewBox="0 0 21 20" fill="none" xmlns="http://www.w3.org/2000/svg">
<path d="M14.3408 13.62C14.9594 13.62 15.4608 13.1186 15.4608 12.5C15.4608 11.8814 14.9594 11.38 14.3408 11.38C13.7223 11.38 13.2208 11.8814 13.2208 12.5C13.2208 13.1186 13.7223 13.62 14.3408 13.62Z" fill="#939698"/>
<path d="M14.3408 14.5C13.6108 14.5 12.1508 14.86 12.1008 15.58C12.6008 16.29 13.4208 16.75 14.3408 16.75C15.2608 16.75 16.0808 16.29 16.5808 15.58C16.5308 14.86 15.0708 14.5 14.3408 14.5Z" fill="#939698"/>
<path fill-rule="evenodd" clip-rule="evenodd" d="M15.3408 3.27V8.09C18.1808 8.57 20.3408 11.03 20.3408 14C20.3408 17.31 17.6508 20 14.3408 20C12.3108 20 10.5208 18.99 9.44082 17.45C8.92082 17.68 8.39082 17.87 7.84082 18C3.54082 16.97 0.34082 12.72 0.34082 8.18V3.27L7.84082 0L15.3408 3.27ZM8.57082 15.62C8.42082 15.11 8.34082 14.56 8.34082 14C8.34082 11.03 10.5008 8.57 13.3408 8.09V4.58L7.84082 2.18L2.34082 4.58V8.18C2.34082 11.68 4.67082 14.92 7.84082 15.92C8.09082 15.84 8.33082 15.73 8.57082 15.62ZM10.3408 14C10.3408 16.21 12.1308 18 14.3408 18C16.5508 18 18.3408 16.21 18.3408 14C18.3408 11.79 16.5508 10 14.3408 10C12.1308 10 10.3408 11.79 10.3408 14Z" fill="#939698"/>
</svg>
