<svg width="21" height="20" viewBox="0 0 21 20" fill="none" xmlns="http://www.w3.org/2000/svg">
<path d="M10.3408 0C4.82082 0 0.34082 4.48 0.34082 10C0.34082 15.52 4.82082 20 10.3408 20C15.8608 20 20.3408 15.52 20.3408 10C20.3408 4.48 15.8608 0 10.3408 0ZM10.3408 18C5.93082 18 2.34082 14.41 2.34082 10C2.34082 5.59 5.93082 2 10.3408 2C14.7508 2 18.3408 5.59 18.3408 10C18.3408 14.41 14.7508 18 10.3408 18ZM9.34082 14H11.3408V16H9.34082V14ZM10.9508 4.04C8.89082 3.74 7.07082 5.01 6.52082 6.83C6.34082 7.41 6.78082 8 7.39082 8H7.59082C8.00082 8 8.33082 7.71 8.47082 7.33C8.79082 6.44 9.74082 5.83 10.7708 6.05C11.7208 6.25 12.4208 7.18 12.3408 8.15C12.2408 9.49 10.7208 9.78 9.89082 11.03C9.89082 11.04 9.88082 11.04 9.88082 11.05C9.87082 11.07 9.86082 11.08 9.85082 11.1C9.76082 11.25 9.67082 11.42 9.60082 11.6C9.59082 11.63 9.57082 11.65 9.56082 11.68C9.55082 11.7 9.55082 11.72 9.54082 11.75C9.42082 12.09 9.34082 12.5 9.34082 13H11.3408C11.3408 12.58 11.4508 12.23 11.6208 11.93C11.6408 11.9 11.6508 11.87 11.6708 11.84C11.7508 11.7 11.8508 11.57 11.9508 11.45C11.9608 11.44 11.9708 11.42 11.9808 11.41C12.0808 11.29 12.1908 11.18 12.3108 11.07C13.2708 10.16 14.5708 9.42 14.3008 7.51C14.0608 5.77 12.6908 4.3 10.9508 4.04Z" fill="#939698"/>
</svg>
