<svg width="21" height="20" viewBox="0 0 21 20" fill="none" xmlns="http://www.w3.org/2000/svg">
<path d="M6.34082 9C5.78854 9 5.34082 9.44771 5.34082 10C5.34082 10.5523 5.78854 11 6.34082 11H14.3408C14.8931 11 15.3408 10.5523 15.3408 10C15.3408 9.44771 14.8931 9 14.3408 9H6.34082Z" fill="#939698"/>
<path fill-rule="evenodd" clip-rule="evenodd" d="M10.3408 0C4.81797 0 0.34082 4.47715 0.34082 10C0.34082 15.5228 4.81797 20 10.3408 20C15.8637 20 20.3408 15.5228 20.3408 10C20.3408 4.47715 15.8637 0 10.3408 0ZM2.34082 10C2.34082 5.58172 5.92254 2 10.3408 2C14.7591 2 18.3408 5.58172 18.3408 10C18.3408 14.4183 14.7591 18 10.3408 18C5.92254 18 2.34082 14.4183 2.34082 10Z" fill="#939698"/>
</svg>
