<svg width="21" height="20" viewBox="0 0 21 20" fill="none" xmlns="http://www.w3.org/2000/svg">
<path fill-rule="evenodd" clip-rule="evenodd" d="M16.3408 0C14.1317 0 12.3408 1.79086 12.3408 4C12.3408 4.28745 12.3711 4.56782 12.4288 4.83808L7.35781 7.37355C6.6245 6.53191 5.54478 6 4.34082 6C2.13168 6 0.34082 7.79086 0.34082 10C0.34082 12.2091 2.13168 14 4.34082 14C5.5448 14 6.62453 13.4681 7.35784 12.6264L12.4288 15.1619C12.3711 15.4321 12.3408 15.7125 12.3408 16C12.3408 18.2091 14.1317 20 16.3408 20C18.55 20 20.3408 18.2091 20.3408 16C20.3408 13.7909 18.55 12 16.3408 12C15.1369 12 14.0573 12.5318 13.324 13.3734L8.25292 10.8379C8.31051 10.5677 8.34082 10.2874 8.34082 10C8.34082 9.7126 8.31051 9.43229 8.25291 9.16207L13.3239 6.62656C14.0572 7.46814 15.1369 8 16.3408 8C18.55 8 20.3408 6.20914 20.3408 4C20.3408 1.79086 18.55 0 16.3408 0ZM14.3408 4C14.3408 2.89543 15.2363 2 16.3408 2C17.4454 2 18.3408 2.89543 18.3408 4C18.3408 5.10457 17.4454 6 16.3408 6C15.2363 6 14.3408 5.10457 14.3408 4ZM2.34082 10C2.34082 8.89543 3.23625 8 4.34082 8C5.44539 8 6.34082 8.89543 6.34082 10C6.34082 11.1046 5.44539 12 4.34082 12C3.23625 12 2.34082 11.1046 2.34082 10ZM16.3408 14C15.2363 14 14.3408 14.8954 14.3408 16C14.3408 17.1046 15.2363 18 16.3408 18C17.4454 18 18.3408 17.1046 18.3408 16C18.3408 14.8954 17.4454 14 16.3408 14Z" fill="#939698"/>
</svg>
