<svg width="23" height="22" viewBox="0 0 23 22" fill="none" xmlns="http://www.w3.org/2000/svg">
<path fill-rule="evenodd" clip-rule="evenodd" d="M9.97873 1.56558C10.5148 0.403273 12.1668 0.403269 12.7029 1.56558L15.1179 6.80134L20.8437 7.48023C22.1148 7.63094 22.6253 9.20202 21.6855 10.0711L17.4523 13.9858L18.576 19.6412C18.8255 20.8966 17.489 21.8676 16.3721 21.2424L11.3408 18.4261L6.30951 21.2424C5.1926 21.8676 3.85615 20.8966 4.10561 19.6412L5.22932 13.9858L0.996093 10.0711L1.67504 9.33689L0.996093 10.0711C0.0563445 9.20202 0.566816 7.63094 1.83791 7.48023L7.5637 6.80134L9.97873 1.56558ZM11.3408 3.3876L9.26259 7.89318C9.04409 8.36689 8.59516 8.69306 8.07712 8.75448L3.14985 9.33869L6.7927 12.7075L6.15516 13.3969L6.79271 12.7075C7.17571 13.0617 7.34718 13.5894 7.24551 14.1011L6.27852 18.9677L10.6081 16.5442C11.0634 16.2894 11.6183 16.2894 12.0735 16.5442L16.4031 18.9677L15.4361 14.1011C15.3344 13.5894 15.5059 13.0617 15.8889 12.7075L19.5318 9.33869L14.6045 8.75448C14.0865 8.69306 13.6375 8.36689 13.419 7.89318L14.3271 7.47434L13.419 7.89318L11.3408 3.3876Z" fill="#939698"/>
</svg>
