<svg width="21" height="20" viewBox="0 0 21 20" fill="none" xmlns="http://www.w3.org/2000/svg">
<path d="M10.3408 2C5.92254 2 2.34082 5.58172 2.34082 10C2.34082 14.4183 5.92254 18 10.3408 18C14.7591 18 18.3408 14.4183 18.3408 10C18.3408 5.58172 14.7591 2 10.3408 2ZM0.34082 10C0.34082 4.47715 4.81797 0 10.3408 0C15.8637 0 20.3408 4.47715 20.3408 10C20.3408 15.5228 15.8637 20 10.3408 20C4.81797 20 0.34082 15.5228 0.34082 10ZM15.0052 6.75259C15.418 7.11951 15.4551 7.75158 15.0882 8.16436L9.7549 14.1644C9.56513 14.3779 9.29313 14.5 9.00749 14.5C8.72185 14.5 8.44985 14.3779 8.26008 14.1644L5.59341 11.1644C5.22649 10.7516 5.26367 10.1195 5.67646 9.75259C6.08924 9.38567 6.72131 9.42285 7.08823 9.83564L9.00749 11.9948L13.5934 6.83564C13.9603 6.42285 14.5924 6.38567 15.0052 6.75259Z" fill="#5A514F"/>
</svg>
