<svg width="21" height="18" viewBox="0 0 21 18" fill="none" xmlns="http://www.w3.org/2000/svg">
<path d="M14.6408 2.54999C13.8808 2.54987 13.1511 2.84811 12.6087 3.38056C12.0664 3.913 11.7547 4.63709 11.7408 5.39699L11.7128 6.97199C11.7112 7.05656 11.6917 7.13982 11.6556 7.21632C11.6195 7.29281 11.5677 7.36082 11.5035 7.41587C11.4393 7.47092 11.3641 7.51178 11.283 7.53575C11.2019 7.55973 11.1167 7.56629 11.0328 7.55499L9.47184 7.34299C7.41784 7.06299 5.44984 6.11699 3.56184 4.54399C2.96384 7.85399 4.13184 10.147 6.94484 11.916L8.69184 13.014C8.77485 13.0662 8.84381 13.1379 8.89269 13.2228C8.94157 13.3078 8.96888 13.4035 8.97223 13.5015C8.97559 13.5995 8.95489 13.6968 8.91193 13.7849C8.86898 13.873 8.80508 13.9493 8.72584 14.007L7.13384 15.17C8.08084 15.229 8.97984 15.187 9.72584 15.039C14.4438 14.097 17.5808 10.547 17.5808 4.69099C17.5808 4.21299 16.5688 2.54999 14.6408 2.54999ZM9.74084 5.35999C9.75829 4.39604 10.0597 3.45866 10.6074 2.66521C11.1551 1.87177 11.9246 1.25751 12.8198 0.899359C13.7149 0.541207 14.6957 0.455072 15.6396 0.65174C16.5834 0.848407 17.4483 1.31914 18.1258 2.00499C18.8368 1.99999 19.4418 2.17999 20.7948 1.35999C20.4598 2.99999 20.2948 3.71199 19.5808 4.69099C19.5808 12.333 14.8838 16.049 10.1178 17C6.84984 17.652 2.09784 16.581 0.73584 15.159C1.42984 15.105 4.24984 14.802 5.87984 13.609C4.50084 12.7 -0.98816 9.46999 2.61884 0.785992C4.31184 2.76299 6.02884 4.10899 7.76884 4.82299C8.92684 5.29799 9.21084 5.28799 9.74184 5.36099L9.74084 5.35999Z" fill="#939698"/>
</svg>
