<svg width="17" height="21" viewBox="0 0 17 21" fill="none" xmlns="http://www.w3.org/2000/svg">
<path d="M1.34082 0H15.3408C15.606 0 15.8604 0.105357 16.0479 0.292893C16.2355 0.48043 16.3408 0.734784 16.3408 1V20.143C16.3409 20.2324 16.3171 20.3202 16.2717 20.3973C16.2264 20.4743 16.1612 20.5378 16.083 20.5811C16.0047 20.6244 15.9163 20.6459 15.827 20.6434C15.7376 20.641 15.6505 20.6146 15.5748 20.567L8.34082 16.03L1.10682 20.566C1.03119 20.6135 0.944208 20.6399 0.854922 20.6424C0.765637 20.6449 0.677306 20.6235 0.599115 20.5803C0.520924 20.5371 0.455727 20.4738 0.410303 20.3969C0.364879 20.32 0.340887 20.2323 0.34082 20.143V1C0.34082 0.734784 0.446177 0.48043 0.633714 0.292893C0.82125 0.105357 1.0756 0 1.34082 0ZM14.3408 2H2.34082V17.432L8.34082 13.671L14.3408 17.432V2Z" fill="#939698"/>
</svg>
