<svg width="21" height="20" viewBox="0 0 21 20" fill="none" xmlns="http://www.w3.org/2000/svg">
<path d="M15.3408 2H19.3408C19.606 2 19.8604 2.10536 20.0479 2.29289C20.2355 2.48043 20.3408 2.73478 20.3408 3V19C20.3408 19.2652 20.2355 19.5196 20.0479 19.7071C19.8604 19.8946 19.606 20 19.3408 20H1.34082C1.0756 20 0.82125 19.8946 0.633713 19.7071C0.446177 19.5196 0.34082 19.2652 0.34082 19V3C0.34082 2.73478 0.446177 2.48043 0.633713 2.29289C0.82125 2.10536 1.0756 2 1.34082 2H5.34082V0H7.34082V2H13.3408V0H15.3408V2ZM18.3408 10H2.34082V18H18.3408V10ZM13.3408 4H7.34082V6H5.34082V4H2.34082V8H18.3408V4H15.3408V6H13.3408V4ZM4.34082 12H6.34082V14H4.34082V12ZM9.34082 12H11.3408V14H9.34082V12ZM14.3408 12H16.3408V14H14.3408V12Z" fill="#939698"/>
</svg>
