<svg width="21" height="19" viewBox="0 0 21 19" fill="none" xmlns="http://www.w3.org/2000/svg">
<path d="M0.340838 4C0.340838 3.448 0.795839 3 1.33284 3H19.3488C19.8968 3 20.3408 3.445 20.3408 4V18C20.3408 18.552 19.8858 19 19.3488 19H1.33284C1.20197 18.9997 1.07243 18.9736 0.951675 18.9232C0.830916 18.8727 0.721307 18.7989 0.629139 18.706C0.536971 18.6131 0.464058 18.5029 0.414583 18.3818C0.365109 18.2606 0.340048 18.1309 0.340838 18V4ZM2.34084 5V17H18.3408V5H2.34084ZM12.3408 14C13.1365 14 13.8996 13.6839 14.4622 13.1213C15.0248 12.5587 15.3408 11.7956 15.3408 11C15.3408 10.2044 15.0248 9.44129 14.4622 8.87868C13.8996 8.31607 13.1365 8 12.3408 8C11.5452 8 10.7821 8.31607 10.2195 8.87868C9.65691 9.44129 9.34084 10.2044 9.34084 11C9.34084 11.7956 9.65691 12.5587 10.2195 13.1213C10.7821 13.6839 11.5452 14 12.3408 14ZM12.3408 16C11.0148 16 9.74299 15.4732 8.8053 14.5355C7.86762 13.5979 7.34084 12.3261 7.34084 11C7.34084 9.67392 7.86762 8.40215 8.8053 7.46447C9.74299 6.52678 11.0148 6 12.3408 6C13.6669 6 14.9387 6.52678 15.8764 7.46447C16.8141 8.40215 17.3408 9.67392 17.3408 11C17.3408 12.3261 16.8141 13.5979 15.8764 14.5355C14.9387 15.4732 13.6669 16 12.3408 16ZM2.34084 0H8.34084V2H2.34084V0Z" fill="#939698"/>
</svg>
