<svg width="20" height="20" viewBox="0 0 20 20" fill="none" xmlns="http://www.w3.org/2000/svg">
<path d="M10.9091 4.54545C10.9091 4.04338 10.5021 3.63636 10 3.63636C9.49792 3.63636 9.09091 4.04338 9.09091 4.54545V10C9.09091 10.3443 9.28546 10.6591 9.59344 10.8131L13.2298 12.6313C13.6789 12.8558 14.2249 12.6738 14.4495 12.2247C14.674 11.7757 14.492 11.2296 14.0429 11.0051L10.9091 9.43815V4.54545Z" fill="#5A514F"/>
<path fill-rule="evenodd" clip-rule="evenodd" d="M10 0C4.47715 0 0 4.47715 0 10C0 15.5228 4.47715 20 10 20C15.5228 20 20 15.5228 20 10C20 4.47715 15.5228 0 10 0ZM1.81818 10C1.81818 5.48131 5.48131 1.81818 10 1.81818C14.5187 1.81818 18.1818 5.48131 18.1818 10C18.1818 14.5187 14.5187 18.1818 10 18.1818C5.48131 18.1818 1.81818 14.5187 1.81818 10Z" fill="#5A514F"/>
</svg>
