<svg width="11" height="10" viewBox="0 0 11 10" fill="none" xmlns="http://www.w3.org/2000/svg">
<path d="M2.04793 0.292893C1.6574 -0.0976311 1.02424 -0.0976311 0.633714 0.292893C0.243189 0.683417 0.243189 1.31658 0.633714 1.70711L3.92662 5.00001L0.633714 8.29292C0.243189 8.68344 0.243189 9.31661 0.633714 9.70713C1.02424 10.0977 1.6574 10.0977 2.04793 9.70713L5.34083 6.41422L8.63369 9.70708C9.02422 10.0976 9.65738 10.0976 10.0479 9.70708C10.4384 9.31656 10.4384 8.6834 10.0479 8.29287L6.75504 5.00001L10.0479 1.70711C10.4385 1.31658 10.4385 0.683417 10.0479 0.292893C9.65743 -0.0976311 9.02426 -0.0976311 8.63374 0.292893L5.34083 3.5858L2.04793 0.292893Z" fill="#939698"/>
</svg>
