<svg width="21" height="20" viewBox="0 0 21 20" fill="none" xmlns="http://www.w3.org/2000/svg">
<path d="M9.29102 13.45C9.29102 12.8977 9.73873 12.45 10.291 12.45H10.391C10.9433 12.45 11.391 12.8977 11.391 13.45V13.55C11.391 14.1022 10.9433 14.55 10.391 14.55H10.291C9.73873 14.55 9.29102 14.1022 9.29102 13.55V13.45Z" fill="#939698"/>
<path d="M11.3408 6.44995C11.3408 5.89767 10.8931 5.44995 10.3408 5.44995C9.78854 5.44995 9.34082 5.89767 9.34082 6.44995V10.45C9.34082 11.0022 9.78854 11.45 10.3408 11.45C10.8931 11.45 11.3408 11.0022 11.3408 10.45V6.44995Z" fill="#939698"/>
<path fill-rule="evenodd" clip-rule="evenodd" d="M0.34082 10C0.34082 4.47715 4.81797 0 10.3408 0C15.8637 0 20.3408 4.47715 20.3408 10C20.3408 15.5228 15.8637 20 10.3408 20C4.81797 20 0.34082 15.5228 0.34082 10ZM10.3408 2C5.92254 2 2.34082 5.58172 2.34082 10C2.34082 14.4183 5.92254 18 10.3408 18C14.7591 18 18.3408 14.4183 18.3408 10C18.3408 5.58172 14.7591 2 10.3408 2Z" fill="#939698"/>
</svg>
