<svg width="21" height="20" viewBox="0 0 21 20" fill="none" xmlns="http://www.w3.org/2000/svg">
<path d="M10.3408 0C4.81082 0 0.34082 4.47 0.34082 10C0.34082 15.53 4.81082 20 10.3408 20C15.8708 20 20.3408 15.53 20.3408 10C20.3408 4.47 15.8708 0 10.3408 0ZM10.3408 18C5.93082 18 2.34082 14.41 2.34082 10C2.34082 5.59 5.93082 2 10.3408 2C14.7508 2 18.3408 5.59 18.3408 10C18.3408 14.41 14.7508 18 10.3408 18ZM13.9308 5L10.3408 8.59L6.75082 5L5.34082 6.41L8.93082 10L5.34082 13.59L6.75082 15L10.3408 11.41L13.9308 15L15.3408 13.59L11.7508 10L15.3408 6.41L13.9308 5Z" fill="#939698"/>
</svg>
