<svg width="21" height="20" viewBox="0 0 21 20" fill="none" xmlns="http://www.w3.org/2000/svg">
<path d="M11.3408 17.938C13.3581 17.6813 15.202 16.6661 16.4976 15.0988C17.7933 13.5314 18.4435 11.5295 18.3162 9.49997C18.1889 7.47041 17.2935 5.56549 15.8121 4.17238C14.3307 2.77927 12.3744 2.00252 10.3408 2C8.30478 1.99848 6.34477 2.77334 4.86016 4.16668C3.37555 5.56002 2.47806 7.46699 2.35056 9.49904C2.22307 11.5311 2.87516 13.5353 4.17396 15.1033C5.47277 16.6712 7.32056 17.685 9.34082 17.938V12H7.34082V10H9.34082V8.346C9.34082 7.009 9.48082 6.524 9.74082 6.035C9.99693 5.55119 10.3928 5.15569 10.8768 4.9C11.2588 4.695 11.7338 4.572 12.5638 4.519C12.8928 4.498 13.3188 4.524 13.8418 4.599V6.499H13.3408C12.4238 6.499 12.0448 6.542 11.8188 6.663C11.684 6.73236 11.5742 6.84215 11.5048 6.977C11.3848 7.203 11.3408 7.427 11.3408 8.345V10H13.8408L13.3408 12H11.3408V17.938ZM10.3408 20C4.81782 20 0.34082 15.523 0.34082 10C0.34082 4.477 4.81782 0 10.3408 0C15.8638 0 20.3408 4.477 20.3408 10C20.3408 15.523 15.8638 20 10.3408 20Z" fill="#939698"/>
</svg>
