<svg width="21" height="19" viewBox="0 0 21 19" fill="none" xmlns="http://www.w3.org/2000/svg">
<path d="M20.3408 6H18.3408V4H9.92682L7.92682 2H2.34082V16H9.78782C10.1551 16.8026 10.7294 17.4929 11.4518 18H1.34082C1.0756 18 0.82125 17.8946 0.633713 17.7071C0.446177 17.5196 0.34082 17.2652 0.34082 17V1C0.34082 0.734784 0.446177 0.48043 0.633713 0.292893C0.82125 0.105357 1.0756 0 1.34082 0H8.75482L10.7548 2H19.3408C19.606 2 19.8604 2.10536 20.0479 2.29289C20.2355 2.48043 20.3408 2.73478 20.3408 3V6ZM11.3408 8H20.3408V13.949C20.3408 14.939 19.8398 15.865 19.0048 16.414L15.8408 18.498L12.6768 16.414C12.2674 16.1461 11.931 15.7807 11.6979 15.3506C11.4647 14.9205 11.342 14.4392 11.3408 13.95V8ZM13.3408 13.949C13.3408 14.265 13.5028 14.563 13.7768 14.744L15.8408 16.104L17.9048 14.744C18.0377 14.6581 18.1472 14.5404 18.2233 14.4016C18.2994 14.2628 18.3398 14.1073 18.3408 13.949V10H13.3408V13.949Z" fill="#939698"/>
</svg>
