<svg width="23" height="22" viewBox="0 0 23 22" fill="none" xmlns="http://www.w3.org/2000/svg">
<rect width="23" height="22" fill="#E5E5E5"/>
<rect width="552" height="836" transform="translate(-156.659 -225)" fill="white"/>
<path d="M19.2788 6.99999H20.3408C20.8713 6.99999 21.38 7.21071 21.755 7.58578C22.1301 7.96085 22.3408 8.46956 22.3408 8.99999V13C22.3408 13.5304 22.1301 14.0391 21.755 14.4142C21.38 14.7893 20.8713 15 20.3408 15H19.2788C19.035 16.9333 18.0941 18.7112 16.6326 20C15.1711 21.2888 13.2894 22 11.3408 22V20C12.9321 20 14.4582 19.3679 15.5835 18.2426C16.7087 17.1174 17.3408 15.5913 17.3408 14V7.99999C17.3408 6.40869 16.7087 4.88257 15.5835 3.75735C14.4582 2.63213 12.9321 1.99999 11.3408 1.99999C9.74952 1.99999 8.2234 2.63213 7.09818 3.75735C5.97296 4.88257 5.34082 6.40869 5.34082 7.99999V15H2.34082C1.81039 15 1.30168 14.7893 0.926607 14.4142C0.551534 14.0391 0.34082 13.5304 0.34082 13V8.99999C0.34082 8.46956 0.551534 7.96085 0.926607 7.58578C1.30168 7.21071 1.81039 6.99999 2.34082 6.99999H3.40282C3.64685 5.06689 4.5879 3.28926 6.04939 2.00067C7.51089 0.712071 9.39237 0.00106812 11.3408 0.00106812C13.2893 0.00106812 15.1708 0.712071 16.6322 2.00067C18.0937 3.28926 19.0348 5.06689 19.2788 6.99999ZM2.34082 8.99999V13H3.34082V8.99999H2.34082ZM19.3408 8.99999V13H20.3408V8.99999H19.3408ZM7.10082 14.785L8.16082 13.089C9.1139 13.686 10.2162 14.0018 11.3408 14C12.4655 14.0018 13.5677 13.686 14.5208 13.089L15.5808 14.785C14.3101 15.5811 12.8404 16.0023 11.3408 16C9.84128 16.0023 8.37156 15.5811 7.10082 14.785Z" fill="#939698"/>
</svg>
