<svg width="21" height="19" viewBox="0 0 21 19" fill="none" xmlns="http://www.w3.org/2000/svg">
<path d="M14.8408 0C17.8788 0 20.3408 2.5 20.3408 6C20.3408 13 12.8408 17 10.3408 18.5C7.84082 17 0.34082 13 0.34082 6C0.34082 2.5 2.84082 0 5.84082 0C7.70082 0 9.34082 1 10.3408 2C11.3408 1 12.9808 0 14.8408 0ZM11.2748 15.604C12.1558 15.048 12.9508 14.495 13.6948 13.903C16.6758 11.533 18.3408 8.943 18.3408 6C18.3408 3.64 16.8038 2 14.8408 2C13.7648 2 12.6008 2.57 11.7548 3.414L10.3408 4.828L8.92682 3.414C8.08082 2.57 6.91682 2 5.84082 2C3.90082 2 2.34082 3.656 2.34082 6C2.34082 8.944 4.00682 11.533 6.98582 13.903C7.73082 14.495 8.52582 15.048 9.40682 15.603C9.70582 15.792 10.0018 15.973 10.3408 16.175C10.6798 15.973 10.9758 15.792 11.2748 15.604Z" fill="#939698"/>
</svg>
