<svg width="21" height="20" viewBox="0 0 21 20" fill="none" xmlns="http://www.w3.org/2000/svg">
<path d="M10.3408 8C10.8931 8 11.3408 8.44771 11.3408 9V14C11.3408 14.5523 10.8931 15 10.3408 15C9.78854 15 9.34082 14.5523 9.34082 14V9C9.34082 8.44771 9.78854 8 10.3408 8Z" fill="#939698"/>
<path d="M10.291 5C9.73873 5 9.29102 5.44772 9.29102 6V6.1C9.29102 6.65228 9.73873 7.1 10.291 7.1H10.391C10.9433 7.1 11.391 6.65228 11.391 6.1V6C11.391 5.44772 10.9433 5 10.391 5H10.291Z" fill="#939698"/>
<path fill-rule="evenodd" clip-rule="evenodd" d="M0.34082 10C0.34082 4.47715 4.81797 0 10.3408 0C15.8637 0 20.3408 4.47715 20.3408 10C20.3408 15.5228 15.8637 20 10.3408 20C4.81797 20 0.34082 15.5228 0.34082 10ZM10.3408 2C5.92254 2 2.34082 5.58172 2.34082 10C2.34082 14.4183 5.92254 18 10.3408 18C14.7591 18 18.3408 14.4183 18.3408 10C18.3408 5.58172 14.7591 2 10.3408 2Z" fill="#939698"/>
</svg>
