<svg width="19" height="20" viewBox="0 0 19 20" fill="none" xmlns="http://www.w3.org/2000/svg">
<path d="M17.3408 20H1.34082C1.0756 20 0.82125 19.8946 0.633713 19.7071C0.446177 19.5196 0.34082 19.2652 0.34082 19V1C0.34082 0.734784 0.446177 0.48043 0.633713 0.292893C0.82125 0.105357 1.0756 0 1.34082 0H17.3408C17.606 0 17.8604 0.105357 18.0479 0.292893C18.2355 0.48043 18.3408 0.734784 18.3408 1V19C18.3408 19.2652 18.2355 19.5196 18.0479 19.7071C17.8604 19.8946 17.606 20 17.3408 20ZM16.3408 18V2H2.34082V18H16.3408ZM5.34082 5H13.3408V7H5.34082V5ZM5.34082 9H13.3408V11H5.34082V9ZM5.34082 13H10.3408V15H5.34082V13Z" fill="#939698"/>
</svg>
