<svg width="17" height="21" viewBox="0 0 17 21" fill="none" xmlns="http://www.w3.org/2000/svg">
<path d="M14.3408 7H13.3408V5C13.3408 2.24 11.1008 0 8.34082 0C5.58082 0 3.34082 2.24 3.34082 5V7H2.34082C1.24082 7 0.34082 7.9 0.34082 9V19C0.34082 20.1 1.24082 21 2.34082 21H14.3408C15.4408 21 16.3408 20.1 16.3408 19V9C16.3408 7.9 15.4408 7 14.3408 7ZM5.34082 5C5.34082 3.34 6.68082 2 8.34082 2C10.0008 2 11.3408 3.34 11.3408 5V7H5.34082V5ZM14.3408 19H2.34082V9H14.3408V19ZM8.34082 16C9.44082 16 10.3408 15.1 10.3408 14C10.3408 12.9 9.44082 12 8.34082 12C7.24082 12 6.34082 12.9 6.34082 14C6.34082 15.1 7.24082 16 8.34082 16Z" fill="#939698"/>
</svg>
