<svg width="19" height="18" viewBox="0 0 19 18" fill="none" xmlns="http://www.w3.org/2000/svg">
<path d="M2.34082 0C1.23625 0 0.34082 0.89543 0.34082 2V4C0.34082 4.55228 0.788536 5 1.34082 5C1.89311 5 2.34082 4.55228 2.34082 4V2H16.3408V16H2.34082V14C2.34082 13.4477 1.89311 13 1.34082 13C0.788536 13 0.34082 13.4477 0.34082 14V16C0.34082 17.1046 1.23625 18 2.34082 18H16.3408C17.4454 18 18.3408 17.1046 18.3408 16V2C18.3408 0.895431 17.4454 0 16.3408 0H2.34082Z" fill="#939698"/>
<path d="M10.0479 5.29289C9.6574 4.90237 9.02424 4.90237 8.63371 5.29289C8.24319 5.68342 8.24319 6.31658 8.63371 6.70711L9.92661 8L1.34082 8C0.788535 8 0.34082 8.44772 0.34082 9C0.34082 9.55228 0.788536 10 1.34082 10H9.92661L8.63371 11.2929C8.24319 11.6834 8.24319 12.3166 8.63371 12.7071C9.02424 13.0976 9.6574 13.0976 10.0479 12.7071L13.0479 9.70711C13.2355 9.51957 13.3408 9.26522 13.3408 9C13.3408 8.73478 13.2355 8.48043 13.0479 8.29289L10.0479 5.29289Z" fill="#939698"/>
</svg>
