<svg width="19" height="18" viewBox="0 0 19 18" fill="none" xmlns="http://www.w3.org/2000/svg">
<path d="M16.6089 0C17.7135 0 18.6089 0.89543 18.6089 2V4C18.6089 4.55228 18.1612 5 17.6089 5C17.0566 5 16.6089 4.55228 16.6089 4V2H2.60889V16H16.6089V14C16.6089 13.4477 17.0566 13 17.6089 13C18.1612 13 18.6089 13.4477 18.6089 14V16C18.6089 17.1046 17.7135 18 16.6089 18H2.60889C1.50432 18 0.608887 17.1046 0.608887 16V2C0.608887 0.895431 1.50432 0 2.60889 0H16.6089Z" fill="#939698"/>
<path d="M15.316 5.29289C14.9255 4.90237 14.2923 4.90237 13.9018 5.29289C13.5113 5.68342 13.5113 6.31658 13.9018 6.70711L15.1947 8L6.60889 8C6.0566 8 5.60889 8.44772 5.60889 9C5.60889 9.55228 6.0566 10 6.60889 10H15.1947L13.9018 11.2929C13.5113 11.6834 13.5113 12.3166 13.9018 12.7071C14.2923 13.0976 14.9255 13.0976 15.316 12.7071L18.316 9.70711C18.5035 9.51957 18.6089 9.26522 18.6089 9C18.6089 8.73478 18.5035 8.48043 18.316 8.29289L15.316 5.29289Z" fill="#939698"/>
</svg>
