<svg width="13" height="22" viewBox="0 0 13 22" fill="none" xmlns="http://www.w3.org/2000/svg">
<path d="M3.34082 22H9.34082C9.89082 22 10.3408 21.55 10.3408 21C10.3408 20.45 9.89082 20 9.34082 20H3.34082C2.79082 20 2.34082 20.45 2.34082 21C2.34082 21.55 2.79082 22 3.34082 22ZM10.3408 0.00999999L2.34082 0C1.24082 0 0.34082 0.9 0.34082 2V16C0.34082 17.1 1.24082 18 2.34082 18H10.3408C11.4408 18 12.3408 17.1 12.3408 16V2C12.3408 0.9 11.4408 0.00999999 10.3408 0.00999999ZM10.3408 14H2.34082V4H10.3408V14Z" fill="#939698"/>
</svg>
