<svg width="21" height="20" viewBox="0 0 21 20" fill="none" xmlns="http://www.w3.org/2000/svg">
<path d="M0.909071 20C0.743386 20 0.608455 19.8656 0.614973 19.7C0.690232 17.7883 1.48265 15.9705 2.84064 14.6125C4.26949 13.1837 6.20742 12.381 8.22812 12.381C10.2488 12.381 12.1868 13.1837 13.6156 14.6125C14.9736 15.9705 15.766 17.7883 15.8413 19.7C15.8478 19.8656 15.7129 20 15.5472 20H14.2424C14.0767 20 13.9432 19.8656 13.9345 19.7001C13.8607 18.2938 13.2695 16.9601 12.2687 15.9594C11.1971 14.8878 9.74364 14.2857 8.22812 14.2857C6.7126 14.2857 5.25915 14.8878 4.18751 15.9594C3.18677 16.9601 2.59555 18.2938 2.5217 19.7001C2.51301 19.8656 2.37952 20 2.21383 20H0.909071ZM8.22812 11.4286C5.07098 11.4286 2.51383 8.87143 2.51383 5.71429C2.51383 2.55714 5.07098 0 8.22812 0C11.3853 0 13.9424 2.55714 13.9424 5.71429C13.9424 8.87143 11.3853 11.4286 8.22812 11.4286ZM8.22812 9.52381C10.3329 9.52381 12.0376 7.81905 12.0376 5.71429C12.0376 3.60952 10.3329 1.90476 8.22812 1.90476C6.12336 1.90476 4.4186 3.60952 4.4186 5.71429C4.4186 7.81905 6.12336 9.52381 8.22812 9.52381ZM15.9945 13.3241C16.0625 13.173 16.2405 13.1051 16.3888 13.1791C17.6095 13.7877 18.6463 14.7139 19.3887 15.8626C20.1311 17.0113 20.5497 18.337 20.6032 19.7001C20.6097 19.8656 20.4748 20 20.3091 20H19.0044C18.8387 20 18.7052 19.8655 18.6965 19.7001C18.6444 18.7041 18.3324 17.7373 17.7892 16.8967C17.2459 16.0562 16.4925 15.3745 15.6059 14.9179C15.4586 14.842 15.3909 14.6652 15.4589 14.5141L15.9945 13.3241ZM15.3702 2.62106C15.4193 2.44889 15.6078 2.35727 15.7686 2.43597C16.5965 2.84109 17.3048 3.45854 17.8196 4.22784C18.3968 5.0904 18.7047 6.10499 18.7043 7.14286C18.7047 8.44984 18.2164 9.70974 17.3353 10.6751C16.5283 11.5593 15.4451 12.1378 14.2685 12.3199C14.0942 12.3469 13.9424 12.2079 13.9424 12.0314V10.703C13.9424 10.5537 14.0525 10.4286 14.1982 10.396C14.8056 10.26 15.3646 9.95611 15.8103 9.51663C16.3179 9.01609 16.6516 8.36602 16.7626 7.66184C16.8735 6.95766 16.7557 6.23647 16.4266 5.60415C16.1362 5.04632 15.6948 4.58357 15.1552 4.26731C15.0298 4.19382 14.9629 4.04678 15.0028 3.907L15.3702 2.62106Z" fill="#939698"/>
</svg>
