<svg width="19" height="18" viewBox="0 0 19 18" fill="none" xmlns="http://www.w3.org/2000/svg">
<path d="M6.70682 7.682C7.64516 9.33048 9.01034 10.6957 10.6588 11.634L11.5428 10.396C11.685 10.1969 11.8952 10.0569 12.1336 10.0023C12.3721 9.94779 12.6223 9.98254 12.8368 10.1C14.2511 10.8729 15.813 11.3378 17.4198 11.464C17.6706 11.4839 17.9047 11.5975 18.0754 11.7823C18.2461 11.9671 18.3409 12.2094 18.3408 12.461V16.923C18.3409 17.1706 18.2491 17.4094 18.0832 17.5932C17.9173 17.777 17.6891 17.8927 17.4428 17.918C16.9128 17.973 16.3788 18 15.8408 18C7.28082 18 0.34082 11.06 0.34082 2.5C0.34082 1.962 0.36782 1.428 0.42282 0.898C0.448075 0.651697 0.563805 0.423521 0.74761 0.257634C0.931416 0.0917472 1.17023 -5.33578e-05 1.41782 2.32673e-08H5.87982C6.13138 -3.15185e-05 6.37372 0.0947515 6.5585 0.265451C6.74329 0.43615 6.85695 0.670224 6.87682 0.921C7.00304 2.52779 7.4679 4.08968 8.24082 5.504C8.35828 5.71856 8.39303 5.96874 8.33849 6.2072C8.28394 6.44565 8.14389 6.65584 7.94482 6.798L6.70682 7.682ZM4.18482 7.025L6.08482 5.668C5.5456 4.50409 5.17617 3.26884 4.98782 2H2.35082C2.34482 2.166 2.34182 2.333 2.34182 2.5C2.34082 9.956 8.38482 16 15.8408 16C16.0078 16 16.1748 15.997 16.3408 15.99V13.353C15.072 13.1646 13.8367 12.7952 12.6728 12.256L11.3158 14.156C10.7695 13.9437 10.2388 13.6931 9.72782 13.406L9.66982 13.373C7.7084 12.2567 6.0841 10.6324 4.96782 8.671L4.93482 8.613C4.64773 8.10199 4.3971 7.57134 4.18482 7.025Z" fill="#939698"/>
</svg>
