<svg width="21" height="19" viewBox="0 0 21 19" fill="none" xmlns="http://www.w3.org/2000/svg">
<path d="M3.16882 18L3.14882 18.02L3.12782 18H1.33282C1.06963 17.9997 0.817317 17.895 0.63131 17.7088C0.445302 17.5226 0.34082 17.2702 0.34082 17.007V0.993C0.34265 0.730378 0.447721 0.479017 0.633333 0.293218C0.818946 0.107418 1.0702 0.00209465 1.33282 0H19.3488C19.8968 0 20.3408 0.445 20.3408 0.993V17.007C20.339 17.2696 20.2339 17.521 20.0483 17.7068C19.8627 17.8926 19.6114 17.9979 19.3488 18H3.16882ZM18.3408 12V2H2.34082V16L12.3408 6L18.3408 12ZM18.3408 14.828L12.3408 8.828L5.16882 16H18.3408V14.828ZM6.34082 8C5.81039 8 5.30168 7.78929 4.92661 7.41421C4.55153 7.03914 4.34082 6.53043 4.34082 6C4.34082 5.46957 4.55153 4.96086 4.92661 4.58579C5.30168 4.21071 5.81039 4 6.34082 4C6.87125 4 7.37996 4.21071 7.75503 4.58579C8.13011 4.96086 8.34082 5.46957 8.34082 6C8.34082 6.53043 8.13011 7.03914 7.75503 7.41421C7.37996 7.78929 6.87125 8 6.34082 8Z" fill="#939698"/>
</svg>
