<svg width="22" height="20" viewBox="0 0 22 20" fill="none" xmlns="http://www.w3.org/2000/svg">
<path d="M15.3408 0C15.606 0 15.8604 0.105357 16.0479 0.292893C16.2355 0.48043 16.3408 0.734784 16.3408 1V5H19.3408C19.606 5 19.8604 5.10536 20.0479 5.29289C20.2355 5.48043 20.3408 5.73478 20.3408 6L20.3418 11.346C19.8271 10.6102 19.1406 10.0112 18.3418 9.601L18.3408 7H2.34082V15H4.34082V14C4.34082 13.7348 4.44618 13.4804 4.63371 13.2929C4.82125 13.1054 5.0756 13 5.34082 13H10.5478L10.4768 13.283L10.4468 13.303C9.8034 13.735 9.27512 14.3175 8.90782 15H6.34082V18H8.40082C8.51522 18.7208 8.79484 19.4053 9.21782 20H5.34082C5.0756 20 4.82125 19.8946 4.63371 19.7071C4.44618 19.5196 4.34082 19.2652 4.34082 19V17H1.34082C1.0756 17 0.82125 16.8946 0.633713 16.7071C0.446177 16.5196 0.34082 16.2652 0.34082 16V6C0.34082 5.73478 0.446177 5.48043 0.633713 5.29289C0.82125 5.10536 1.0756 5 1.34082 5H4.34082V1C4.34082 0.734784 4.44618 0.48043 4.63371 0.292893C4.82125 0.105357 5.0756 0 5.34082 0H15.3408ZM15.8408 11C16.7691 11 17.6593 11.3687 18.3157 12.0251C18.9721 12.6815 19.3408 13.5717 19.3408 14.5L19.3398 14.603C19.9654 14.7793 20.5084 15.1714 20.8723 15.7099C21.2363 16.2484 21.3978 16.8983 21.3282 17.5446C21.2586 18.1908 20.9623 18.7914 20.492 19.24C20.0216 19.6886 19.4076 19.9561 18.7588 19.995L18.5908 20H13.0908L12.9228 19.995C12.2742 19.9557 11.6604 19.6879 11.1904 19.2392C10.7203 18.7905 10.4244 18.1898 10.355 17.5437C10.2856 16.8975 10.4473 16.2477 10.8113 15.7094C11.1754 15.1711 11.7183 14.7792 12.3438 14.603L12.3408 14.5C12.3408 13.5717 12.7096 12.6815 13.3659 12.0251C14.0223 11.3687 14.9126 11 15.8408 11ZM15.8408 13C15.4924 12.9999 15.1548 13.1211 14.886 13.3429C14.6172 13.5646 14.434 13.8729 14.3678 14.215L14.3478 14.355L14.3408 14.5V16.12L12.8968 16.526C12.7304 16.5704 12.5844 16.6708 12.4832 16.8102C12.3821 16.9496 12.332 17.1195 12.3414 17.2915C12.3507 17.4635 12.419 17.627 12.5348 17.7545C12.6505 17.8821 12.8066 17.966 12.9768 17.992L13.0858 18H18.5958C18.7771 17.9986 18.9518 17.9316 19.0875 17.8113C19.2232 17.6911 19.3108 17.5257 19.334 17.3459C19.3572 17.1661 19.3144 16.9839 19.2136 16.8332C19.1128 16.6824 18.9609 16.5733 18.7858 16.526L17.7728 16.243L17.3408 16.12V14.5L17.3338 14.356C17.298 13.9848 17.1253 13.6403 16.8492 13.3896C16.5732 13.1389 16.2137 13 15.8408 13ZM6.34082 8V10H3.34082V8H6.34082ZM14.3408 2H6.34082V5H14.3408V2Z" fill="#939698"/>
</svg>
