<svg width="21" height="20" viewBox="0 0 21 20" fill="none" xmlns="http://www.w3.org/2000/svg">
<path d="M4.34082 17H1.34082C1.0756 17 0.82125 16.8946 0.633713 16.7071C0.446177 16.5196 0.34082 16.2652 0.34082 16V6C0.34082 5.73478 0.446177 5.48043 0.633713 5.29289C0.82125 5.10536 1.0756 5 1.34082 5H4.34082V1C4.34082 0.734784 4.44618 0.48043 4.63371 0.292893C4.82125 0.105357 5.0756 0 5.34082 0H15.3408C15.606 0 15.8604 0.105357 16.0479 0.292893C16.2355 0.48043 16.3408 0.734784 16.3408 1V5H19.3408C19.606 5 19.8604 5.10536 20.0479 5.29289C20.2355 5.48043 20.3408 5.73478 20.3408 6V16C20.3408 16.2652 20.2355 16.5196 20.0479 16.7071C19.8604 16.8946 19.606 17 19.3408 17H16.3408V19C16.3408 19.2652 16.2355 19.5196 16.0479 19.7071C15.8604 19.8946 15.606 20 15.3408 20H5.34082C5.0756 20 4.82125 19.8946 4.63371 19.7071C4.44618 19.5196 4.34082 19.2652 4.34082 19V17ZM4.34082 15V14C4.34082 13.7348 4.44618 13.4804 4.63371 13.2929C4.82125 13.1054 5.0756 13 5.34082 13H15.3408C15.606 13 15.8604 13.1054 16.0479 13.2929C16.2355 13.4804 16.3408 13.7348 16.3408 14V15H18.3408V7H2.34082V15H4.34082ZM6.34082 2V5H14.3408V2H6.34082ZM6.34082 15V18H14.3408V15H6.34082ZM3.34082 8H6.34082V10H3.34082V8Z" fill="#939698"/>
</svg>
