<svg width="19" height="20" viewBox="0 0 19 20" fill="none" xmlns="http://www.w3.org/2000/svg">
<path d="M13.0479 7.70711C13.4385 7.31658 13.4385 6.68342 13.0479 6.29289C12.6574 5.90237 12.0242 5.90237 11.6337 6.29289L8.34082 9.58579L7.04793 8.29289C6.6574 7.90237 6.02424 7.90237 5.63371 8.29289C5.24319 8.68342 5.24319 9.31658 5.63371 9.70711L7.63371 11.7071C8.02424 12.0976 8.6574 12.0976 9.04793 11.7071L13.0479 7.70711Z" fill="#939698"/>
<path fill-rule="evenodd" clip-rule="evenodd" d="M2.34082 0C1.23625 0 0.34082 0.895429 0.34082 2V8.16485C0.34082 16.2341 7.2119 19.2682 8.69557 19.8317C9.11453 19.9908 9.56711 19.9908 9.98606 19.8317C11.4697 19.2682 18.3408 16.2341 18.3408 8.16485V2C18.3408 0.895431 17.4454 0 16.3408 0H2.34082ZM2.34082 2L16.3408 2V8.16485C16.3408 14.7589 10.8315 17.3573 9.34082 17.9371C7.85009 17.3573 2.34082 14.7589 2.34082 8.16485V2Z" fill="#939698"/>
</svg>
