<svg width="17" height="17" viewBox="0 0 17 17" fill="none" xmlns="http://www.w3.org/2000/svg">
<path d="M2.70742 3.34999C4.33742 1.71999 6.64742 0.779992 9.18742 1.03999C12.8574 1.40999 15.8774 4.38999 16.2874 8.05999C16.8374 12.91 13.0874 17 8.35742 17C5.16742 17 2.42742 15.13 1.14742 12.44C0.827423 11.77 1.30742 11 2.04742 11C2.41742 11 2.76742 11.2 2.92742 11.53C4.05742 13.96 6.76742 15.5 9.72742 14.84C11.9474 14.35 13.7374 12.54 14.2074 10.32C15.0474 6.43999 12.0974 2.99999 8.35742 2.99999C6.69742 2.99999 5.21742 3.68999 4.13742 4.77999L5.64742 6.28999C6.27742 6.91999 5.83742 7.99999 4.94742 7.99999H1.35742C0.807422 7.99999 0.357422 7.54999 0.357422 6.99999V3.40999C0.357422 2.51999 1.43742 2.06999 2.06742 2.69999L2.70742 3.34999Z" fill="#5A514F"/>
</svg>
