<svg width="23" height="22" viewBox="0 0 23 22" fill="none" xmlns="http://www.w3.org/2000/svg">
<path fill-rule="evenodd" clip-rule="evenodd" d="M11.3408 6C8.5794 6 6.34082 8.23858 6.34082 11C6.34082 13.7614 8.5794 16 11.3408 16C14.1022 16 16.3408 13.7614 16.3408 11C16.3408 8.23858 14.1022 6 11.3408 6ZM8.34082 11C8.34082 9.34315 9.68397 8 11.3408 8C12.9977 8 14.3408 9.34315 14.3408 11C14.3408 12.6569 12.9977 14 11.3408 14C9.68397 14 8.34082 12.6569 8.34082 11Z" fill="#939698"/>
<path fill-rule="evenodd" clip-rule="evenodd" d="M9.23494 0.69641C8.61046 0.321504 7.83153 0.315739 7.20157 0.681363L4.47359 2.26465C3.8466 2.62855 3.46561 3.30324 3.47781 4.02807L3.50777 5.80898C3.51082 5.99027 3.46452 6.16899 3.37383 6.326L3.30894 6.43832C3.2182 6.59542 3.08642 6.72487 2.92774 6.8128L1.37285 7.67447C0.735461 8.0277 0.340635 8.69964 0.34229 9.42836L0.349449 12.5802C0.351095 13.3045 0.744209 13.9713 1.37715 14.3234L2.92458 15.1842C3.0838 15.2728 3.2158 15.4032 3.30631 15.5613L3.37584 15.6828C3.46526 15.839 3.51085 16.0165 3.50781 16.1965L3.47788 17.9696C3.4656 18.6967 3.84895 19.3731 4.47902 19.7362L7.21566 21.3132C7.8441 21.6754 8.61937 21.6689 9.24167 21.2963L10.7608 20.3867C10.916 20.2937 11.0935 20.2446 11.2745 20.2446H11.4062C11.5875 20.2446 11.7654 20.2939 11.9209 20.3873L13.447 21.3034C14.0714 21.6783 14.8504 21.6841 15.4803 21.3185L18.2083 19.7352C18.8353 19.3713 19.2163 18.6966 19.2041 17.9718L19.1741 16.1909C19.1711 16.0096 19.2174 15.8309 19.3081 15.6739L19.3729 15.5615C19.4637 15.4044 19.5955 15.275 19.7542 15.187L21.309 14.3254C21.9464 13.9721 22.3413 13.3002 22.3396 12.5715L22.3324 9.41966C22.3308 8.69536 21.9377 8.02856 21.3047 7.67644L19.7536 6.81354C19.5956 6.72561 19.4643 6.59646 19.3738 6.43985L19.3081 6.326C19.2174 6.16899 19.1711 5.99028 19.1741 5.80898L19.204 4.03016C19.2163 3.3031 18.8329 2.6267 18.2029 2.26364L15.4662 0.686632C14.8378 0.324487 14.0625 0.330977 13.4402 0.703592L11.9211 1.61318C11.7659 1.70613 11.5884 1.75522 11.4074 1.75522H11.2757C11.0944 1.75522 10.9165 1.70591 10.761 1.61258L9.23494 0.69641ZM5.47753 3.99442L8.20551 2.41113L9.73158 3.3273C10.198 3.6073 10.7317 3.75522 11.2757 3.75522H11.4074C11.9502 3.75522 12.4829 3.60795 12.9486 3.32909L14.4677 2.41951L17.2043 3.99651L17.1744 5.77533C17.1653 6.31922 17.3041 6.85536 17.5762 7.32638L17.642 7.44023C17.9134 7.91007 18.3071 8.29751 18.7813 8.56129L20.3324 9.4242L20.3396 12.576L18.7847 13.4377C18.3087 13.7015 17.9134 14.0898 17.6411 14.5611L17.5762 14.6735C17.3041 15.1445 17.1653 15.6806 17.1744 16.2245L17.2044 18.0054L14.4764 19.5887L12.9503 18.6725C12.4839 18.3925 11.9502 18.2446 11.4062 18.2446H11.2745C10.7317 18.2446 10.199 18.3919 9.73331 18.6708L8.21423 19.5803L5.47759 18.0034L5.50753 16.2302C5.51664 15.6903 5.37986 15.1579 5.1116 14.6893L5.04208 14.5678C4.77053 14.0934 4.37454 13.7022 3.89687 13.4365L2.34944 12.5756L2.34229 9.42382L3.89717 8.56215C4.37322 8.29834 4.76853 7.90999 5.04077 7.43871L5.10566 7.32638C5.37774 6.85536 5.51664 6.31922 5.50749 5.77533L5.47753 3.99442Z" fill="#939698"/>
</svg>
