<svg width="10" height="15" viewBox="0 0 10 15" fill="none" xmlns="http://www.w3.org/2000/svg">
<path d="M5.29638 0C5.54503 0 5.78348 0.098772 5.9593 0.274587L9.70929 4.02459C10.0754 4.3907 10.0754 4.98429 9.70929 5.35041C9.34318 5.71653 8.74959 5.71653 8.38347 5.35041L5.29638 2.26332L2.2093 5.35041C1.84318 5.71653 1.24959 5.71653 0.883474 5.35041C0.517358 4.98429 0.517358 4.3907 0.883474 4.02459L4.63347 0.274587C4.80929 0.098772 5.04774 0 5.29638 0ZM0.883474 9.64959C1.24959 9.28347 1.84318 9.28347 2.2093 9.64959L5.29638 12.7367L8.38347 9.64959C8.74959 9.28347 9.34318 9.28347 9.7093 9.64959C10.0754 10.0157 10.0754 10.6093 9.7093 10.9754L5.9593 14.7254C5.59318 15.0915 4.99959 15.0915 4.63347 14.7254L0.883474 10.9754C0.517358 10.6093 0.517358 10.0157 0.883474 9.64959Z" fill="#939698"/>
</svg>
