<svg width="23" height="16" viewBox="0 0 23 16" fill="none" xmlns="http://www.w3.org/2000/svg">
<path d="M11.3408 0C17.4158 0 22.3408 2.686 22.3408 6V10C22.3408 13.314 17.4158 16 11.3408 16C5.37382 16 0.51682 13.409 0.34582 10.177L0.34082 10V6C0.34082 2.686 5.26582 0 11.3408 0ZM11.3408 12C7.62082 12 4.33082 10.993 2.34082 9.45V10C2.34082 11.882 6.22382 14 11.3408 14C16.3508 14 20.1788 11.97 20.3358 10.118L20.3408 10L20.3418 9.45C18.3518 10.992 15.0618 12 11.3408 12ZM11.3408 2C6.22382 2 2.34082 4.118 2.34082 6C2.34082 7.882 6.22382 10 11.3408 10C16.4578 10 20.3408 7.882 20.3408 6C20.3408 4.118 16.4578 2 11.3408 2Z" fill="#939698"/>
</svg>
