<svg width="18" height="20" viewBox="0 0 18 20" fill="none" xmlns="http://www.w3.org/2000/svg">
<path d="M12.1686 5.75701L6.51262 11.414C6.41711 11.5063 6.34093 11.6166 6.28852 11.7386C6.23611 11.8606 6.20852 11.9918 6.20737 12.1246C6.20621 12.2574 6.23152 12.3891 6.2818 12.512C6.33208 12.6349 6.40633 12.7465 6.50022 12.8404C6.59412 12.9343 6.70577 13.0086 6.82866 13.0588C6.95156 13.1091 7.08324 13.1344 7.21602 13.1333C7.3488 13.1321 7.48002 13.1045 7.60202 13.0521C7.72403 12.9997 7.83437 12.9235 7.92662 12.828L13.5836 7.17201C14.1463 6.60935 14.4624 5.84623 14.4624 5.05051C14.4624 4.25479 14.1463 3.49167 13.5836 2.92901C13.021 2.36635 12.2578 2.05026 11.4621 2.05026C10.6664 2.05026 9.90328 2.36635 9.34062 2.92901L3.68362 8.58601C3.20969 9.04814 2.83225 9.59977 2.57318 10.2089C2.3141 10.818 2.17856 11.4726 2.17442 12.1345C2.17027 12.7964 2.2976 13.4526 2.54902 14.0649C2.80043 14.6773 3.17094 15.2336 3.63903 15.7016C4.10713 16.1696 4.6635 16.5401 5.27587 16.7914C5.88824 17.0427 6.54443 17.17 7.20635 17.1657C7.86828 17.1615 8.52278 17.0258 9.13188 16.7667C9.74098 16.5075 10.2926 16.13 10.7546 15.656L16.4116 10L17.8256 11.414L12.1686 17.071C11.5186 17.7211 10.7469 18.2367 9.89754 18.5885C9.04822 18.9403 8.13792 19.1214 7.21862 19.1214C6.29932 19.1214 5.38902 18.9403 4.5397 18.5885C3.69038 18.2367 2.91866 17.7211 2.26862 17.071C1.61858 16.421 1.10293 15.6493 0.751132 14.7999C0.399331 13.9506 0.218262 13.0403 0.218262 12.121C0.218262 11.2017 0.399331 10.2914 0.751132 9.44209C1.10293 8.59277 1.61858 7.82105 2.26862 7.17101L7.92662 1.51501C8.86963 0.604219 10.1326 0.100247 11.4436 0.111639C12.7546 0.123031 14.0087 0.648876 14.9357 1.57592C15.8628 2.50296 16.3886 3.75702 16.4 5.068C16.4114 6.37899 15.9074 7.642 14.9966 8.58501L9.34062 14.244C9.06195 14.5226 8.73114 14.7436 8.36707 14.8943C8.00301 15.0451 7.61281 15.1227 7.21877 15.1226C6.82472 15.1226 6.43454 15.0449 6.07051 14.8941C5.70648 14.7432 5.37572 14.5222 5.09712 14.2435C4.81852 13.9648 4.59753 13.634 4.44678 13.27C4.29603 12.9059 4.21847 12.5157 4.21851 12.1217C4.21856 11.7276 4.29622 11.3374 4.44705 10.9734C4.59789 10.6094 4.81895 10.2786 5.09762 10L10.7546 4.34301L12.1686 5.75701Z" fill="#939698"/>
</svg>
