<svg width="21" height="20" viewBox="0 0 21 20" fill="none" xmlns="http://www.w3.org/2000/svg">
<path d="M8.34082 0H12.3408C14.4626 0 16.4974 0.842855 17.9977 2.34315C19.498 3.84344 20.3408 5.87827 20.3408 8C20.3408 10.1217 19.498 12.1566 17.9977 13.6569C16.4974 15.1571 14.4626 16 12.3408 16V19.5C7.34082 17.5 0.34082 14.5 0.34082 8C0.34082 5.87827 1.18368 3.84344 2.68397 2.34315C4.18426 0.842855 6.21909 0 8.34082 0ZM10.3408 14H12.3408C13.1288 14 13.909 13.8448 14.6369 13.5433C15.3649 13.2417 16.0263 12.7998 16.5835 12.2426C17.1406 11.6855 17.5826 11.0241 17.8841 10.2961C18.1856 9.56815 18.3408 8.78793 18.3408 8C18.3408 7.21207 18.1856 6.43185 17.8841 5.7039C17.5826 4.97595 17.1406 4.31451 16.5835 3.75736C16.0263 3.20021 15.3649 2.75825 14.6369 2.45672C13.909 2.15519 13.1288 2 12.3408 2H8.34082C6.74952 2 5.2234 2.63214 4.09818 3.75736C2.97296 4.88258 2.34082 6.4087 2.34082 8C2.34082 11.61 4.80282 13.966 10.3408 16.48V14Z" fill="#939698"/>
</svg>
