<svg width="12" height="14" viewBox="0 0 12 14" fill="none" xmlns="http://www.w3.org/2000/svg">
<path d="M2.66667 5.66669H11.3333C11.5101 5.66669 11.6797 5.73692 11.8047 5.86195C11.9298 5.98697 12 6.15654 12 6.33335V13C12 13.1768 11.9298 13.3464 11.8047 13.4714C11.6797 13.5964 11.5101 13.6667 11.3333 13.6667H0.666667C0.489856 13.6667 0.320286 13.5964 0.195262 13.4714C0.0702379 13.3464 0 13.1768 0 13V6.33335C0 6.15654 0.0702379 5.98697 0.195262 5.86195C0.320286 5.73692 0.489856 5.66669 0.666667 5.66669H1.33333V5.00002C1.33295 3.94849 1.68772 2.92765 2.34013 2.10298C2.99253 1.2783 3.90434 0.698139 4.92773 0.456528C5.95113 0.214916 7.02613 0.326019 7.97848 0.771827C8.93084 1.21764 9.70471 1.97202 10.1747 2.91269L8.982 3.50869C8.64633 2.8367 8.09353 2.29778 7.41322 1.97932C6.73291 1.66085 5.96497 1.5815 5.23392 1.75414C4.50287 1.92677 3.85155 2.34127 3.38557 2.93043C2.91959 3.51958 2.66627 4.24886 2.66667 5.00002V5.66669ZM1.33333 7.00002V12.3334H10.6667V7.00002H1.33333ZM4.66667 9.00002H7.33333V10.3334H4.66667V9.00002Z" fill="#939698"/>
</svg>
