<svg width="25" height="24" viewBox="0 0 25 24" fill="none" xmlns="http://www.w3.org/2000/svg">
<path fill-rule="evenodd" clip-rule="evenodd" d="M11.6337 2.29289C12.0242 1.90237 12.6574 1.90237 13.0479 2.29289L16.0479 5.29289C16.4385 5.68342 16.4385 6.31658 16.0479 6.70711C15.6574 7.09763 15.0242 7.09763 14.6337 6.70711L12.3408 4.41421L10.0479 6.70711C9.6574 7.09763 9.02424 7.09763 8.63371 6.70711C8.24319 6.31658 8.24319 5.68342 8.63371 5.29289L11.6337 2.29289Z" fill="#939698"/>
<path fill-rule="evenodd" clip-rule="evenodd" d="M12.3408 2C12.8931 2 13.3408 2.44772 13.3408 3L13.3408 13C13.3408 13.5523 12.8931 14 12.3408 14C11.7885 14 11.3408 13.5523 11.3408 13L11.3408 3C11.3408 2.44772 11.7885 2 12.3408 2Z" fill="#939698"/>
<path fill-rule="evenodd" clip-rule="evenodd" d="M3.34082 11C3.34082 9.89543 4.23625 9 5.34082 9H7.34082C7.89311 9 8.34082 9.44772 8.34082 10C8.34082 10.5523 7.89311 11 7.34082 11L5.34082 11V20H19.3408V11H17.3408C16.7885 11 16.3408 10.5523 16.3408 10C16.3408 9.44772 16.7885 9 17.3408 9H19.3408C20.4454 9 21.3408 9.89543 21.3408 11V20C21.3408 21.1046 20.4454 22 19.3408 22H5.34082C4.23625 22 3.34082 21.1046 3.34082 20V11Z" fill="#939698"/>
</svg>
