<svg width="23" height="18" viewBox="0 0 23 18" fill="none" xmlns="http://www.w3.org/2000/svg">
<path d="M11.341 0C16.733 0 21.219 3.88 22.16 9C21.22 14.12 16.733 18 11.341 18C5.94897 18 1.46297 14.12 0.521973 9C1.46197 3.88 5.94897 0 11.341 0ZM11.341 16C13.3804 15.9996 15.3594 15.3068 16.9538 14.0352C18.5483 12.7635 19.6639 10.9883 20.118 9C19.6622 7.0133 18.5459 5.24 16.9516 3.97003C15.3573 2.70005 13.3793 2.00853 11.341 2.00853C9.30267 2.00853 7.32466 2.70005 5.73035 3.97003C4.13603 5.24 3.01974 7.0133 2.56397 9C3.01807 10.9883 4.13365 12.7635 5.72812 14.0352C7.32259 15.3068 9.3015 15.9996 11.341 16ZM11.341 13.5C10.1475 13.5 9.00291 13.0259 8.15899 12.182C7.31508 11.3381 6.84097 10.1935 6.84097 9C6.84097 7.80653 7.31508 6.66193 8.15899 5.81802C9.00291 4.97411 10.1475 4.5 11.341 4.5C12.5344 4.5 13.679 4.97411 14.523 5.81802C15.3669 6.66193 15.841 7.80653 15.841 9C15.841 10.1935 15.3669 11.3381 14.523 12.182C13.679 13.0259 12.5344 13.5 11.341 13.5ZM11.341 11.5C12.004 11.5 12.6399 11.2366 13.1087 10.7678C13.5776 10.2989 13.841 9.66304 13.841 9C13.841 8.33696 13.5776 7.70107 13.1087 7.23223C12.6399 6.76339 12.004 6.5 11.341 6.5C10.6779 6.5 10.042 6.76339 9.57321 7.23223C9.10437 7.70107 8.84097 8.33696 8.84097 9C8.84097 9.66304 9.10437 10.2989 9.57321 10.7678C10.042 11.2366 10.6779 11.5 11.341 11.5Z" fill="#939698"/>
</svg>
