<svg width="22" height="18" viewBox="0 0 22 18" fill="none" xmlns="http://www.w3.org/2000/svg">
<path d="M20.3408 4H21.3408V14H20.3408V17C20.3408 17.2652 20.2355 17.5196 20.0479 17.7071C19.8604 17.8946 19.606 18 19.3408 18H1.34082C1.0756 18 0.82125 17.8946 0.633713 17.7071C0.446177 17.5196 0.34082 17.2652 0.34082 17V1C0.34082 0.734784 0.446177 0.48043 0.633713 0.292893C0.82125 0.105357 1.0756 0 1.34082 0H19.3408C19.606 0 19.8604 0.105357 20.0479 0.292893C20.2355 0.48043 20.3408 0.734784 20.3408 1V4ZM18.3408 14H12.3408C11.0147 14 9.74297 13.4732 8.80529 12.5355C7.8676 11.5979 7.34082 10.3261 7.34082 9C7.34082 7.67392 7.8676 6.40215 8.80529 5.46447C9.74297 4.52678 11.0147 4 12.3408 4H18.3408V2H2.34082V16H18.3408V14ZM19.3408 12V6H12.3408C11.5452 6 10.7821 6.31607 10.2195 6.87868C9.65689 7.44129 9.34082 8.20435 9.34082 9C9.34082 9.79565 9.65689 10.5587 10.2195 11.1213C10.7821 11.6839 11.5452 12 12.3408 12H19.3408ZM12.3408 8H15.3408V10H12.3408V8Z" fill="#939698"/>
</svg>
