<svg width="12" height="10" viewBox="0 0 12 10" fill="none" xmlns="http://www.w3.org/2000/svg">
<path d="M9.73371 0.292893C10.1242 -0.097631 10.7574 -0.097631 11.1479 0.292893C11.5385 0.683417 11.5385 1.31658 11.1479 1.70711L7.85503 5L11.1479 8.29289C11.5385 8.68342 11.5385 9.31658 11.1479 9.70711C10.7574 10.0976 10.1242 10.0976 9.73371 9.70711L5.73371 5.70711C5.34319 5.31658 5.34319 4.68342 5.73371 4.29289L9.73371 0.292893Z" fill="#D8D8D8"/>
<path d="M1.39082 0C1.97072 0 2.44082 0.4701 2.44082 1.05V8.95C2.44082 9.5299 1.97072 10 1.39082 10C0.810923 10 0.34082 9.5299 0.34082 8.95V1.05C0.34082 0.470101 0.810923 0 1.39082 0Z" fill="#D8D8D8"/>
</svg>
