<svg width="12" height="10" viewBox="0 0 12 10" fill="none" xmlns="http://www.w3.org/2000/svg">
<path d="M2.04793 0.292893C1.6574 -0.097631 1.02424 -0.097631 0.633714 0.292893C0.243189 0.683417 0.243189 1.31658 0.633714 1.70711L3.92661 5L0.633714 8.29289C0.243189 8.68342 0.243189 9.31658 0.633714 9.70711C1.02424 10.0976 1.6574 10.0976 2.04793 9.70711L6.04793 5.70711C6.43845 5.31658 6.43845 4.68342 6.04793 4.29289L2.04793 0.292893Z" fill="#939698"/>
<path d="M10.3908 0C9.81092 0 9.34082 0.4701 9.34082 1.05V8.95C9.34082 9.5299 9.81092 10 10.3908 10C10.9707 10 11.4408 9.5299 11.4408 8.95V1.05C11.4408 0.470101 10.9707 0 10.3908 0Z" fill="#939698"/>
</svg>
